<svg width="200" height="59" viewBox="0 0 200 59" fill="none" xmlns="http://www.w3.org/2000/svg">
<g clip-path="url(#clip0_14_762)">
<path d="M45.7161 4.39999L200 58.2323H29.1742L28.9032 16.4387C28.8516 7.69031 37.4709 1.53548 45.7161 4.41289V4.39999Z" fill="#FAFAFA"/>
<path d="M29.0322 55.9871C43.8691 55.9871 55.8968 43.9594 55.8968 29.1226C55.8968 14.2857 43.8691 2.25806 29.0322 2.25806C14.1954 2.25806 2.16772 14.2857 2.16772 29.1226C2.16772 43.9594 14.1954 55.9871 29.0322 55.9871Z" fill="#FFF3E0" stroke="#FAFAFA" stroke-width="3.36" stroke-miterlimit="10"/>
<path d="M29.0323 49.9226C40.5198 49.9226 49.8323 40.6101 49.8323 29.1226C49.8323 17.635 40.5198 8.32257 29.0323 8.32257C17.5448 8.32257 8.2323 17.635 8.2323 29.1226C8.2323 40.6101 17.5448 49.9226 29.0323 49.9226Z" fill="#FAFAFA"/>
<path d="M29.0323 45.5871C38.1254 45.5871 45.4968 38.2157 45.4968 29.1226C45.4968 20.0295 38.1254 12.6581 29.0323 12.6581C19.9392 12.6581 12.5677 20.0295 12.5677 29.1226C12.5677 38.2157 19.9392 45.5871 29.0323 45.5871Z" fill="#FFF3E0"/>
<path d="M63.9742 14.3484C63.8451 14.3484 63.729 14.2968 63.6387 14.2065C63.5484 14.1161 63.4967 14 63.4967 13.871V9.21291C63.058 9.38066 62.6322 9.5355 62.2322 9.69033C61.8322 9.84517 61.5097 9.9613 61.2516 10.0516C61.0838 10.1032 60.9419 10.1032 60.8129 10.0516C60.6838 10 60.5935 9.89679 60.5419 9.75485C60.5032 9.61291 60.5161 9.48388 60.5677 9.35485C60.6322 9.23872 60.7355 9.1484 60.8903 9.09679C61.2129 8.99356 61.6 8.86453 62.0645 8.69678C62.529 8.52904 63.0064 8.3613 63.4838 8.20646V4.86453H61.9613C61.8709 5.25162 61.7677 5.61291 61.6645 5.9484C61.5613 6.28388 61.4451 6.59356 61.329 6.87743C61.2129 7.1742 61.0064 7.29033 60.6967 7.20001C60.5806 7.1613 60.4903 7.08388 60.4387 6.95485C60.3742 6.83872 60.3742 6.70969 60.4258 6.59356C60.5935 6.20646 60.7484 5.76775 60.8903 5.27743C61.0322 4.78711 61.1613 4.27098 61.2645 3.74195C61.3677 3.21291 61.4451 2.69679 61.4838 2.21937C61.4838 2.07743 61.5484 1.9613 61.6516 1.89679C61.7548 1.81937 61.858 1.79356 61.9871 1.81937C62.2967 1.84517 62.4387 2.01291 62.4 2.30969C62.3484 2.86453 62.2709 3.41937 62.1677 3.9484H63.4838V0.503237C63.4838 0.361302 63.5355 0.245173 63.6258 0.15485C63.7161 0.0645275 63.8322 0.0258179 63.9613 0.0258179C64.0903 0.0258179 64.2064 0.0645275 64.2967 0.15485C64.3871 0.245173 64.4387 0.361302 64.4387 0.503237V3.92259H65.6516C65.7806 3.92259 65.8838 3.97421 65.9742 4.06453C66.0645 4.15485 66.1032 4.27098 66.1032 4.38711C66.1032 4.50324 66.0645 4.61937 65.9742 4.70969C65.8838 4.80001 65.7806 4.83872 65.6516 4.83872H64.4387V7.83227C64.6709 7.74195 64.9032 7.65162 65.1096 7.5742C65.3161 7.49679 65.5097 7.41937 65.6774 7.35485C65.7935 7.30324 65.8967 7.30324 66.0129 7.35485C66.1161 7.40646 66.1935 7.48388 66.2322 7.61291C66.3226 7.89679 66.2322 8.09033 65.9742 8.21937C65.7935 8.29679 65.5742 8.38711 65.3032 8.50324C65.0322 8.61937 64.7484 8.73549 64.4387 8.86453V13.8968C64.4387 14.0258 64.3871 14.1419 64.2967 14.2323C64.2064 14.3226 64.0903 14.3742 63.9613 14.3742L63.9742 14.3484ZM69.9613 14.3097C69.8322 14.3097 69.7032 14.2581 69.6 14.1678C69.4967 14.0774 69.4451 13.9613 69.4451 13.8065C69.4451 13.6516 69.4838 13.5484 69.5742 13.4452C69.6645 13.3548 69.7677 13.3032 69.9097 13.2903C70.3484 13.2645 70.6838 13.2258 70.8903 13.1613C71.0967 13.0968 71.2387 12.9807 71.3161 12.8258C71.3935 12.671 71.4193 12.4387 71.4193 12.1548V8.7613H66.6193C66.4903 8.7613 66.3871 8.70969 66.2967 8.61937C66.2064 8.52904 66.1677 8.41291 66.1677 8.29679C66.1677 8.18066 66.2064 8.06453 66.2967 7.9742C66.3871 7.88388 66.4903 7.83227 66.6193 7.83227H71.4193V6.00001H66.4645C66.3355 6.00001 66.2322 5.9613 66.1419 5.87098C66.0516 5.78066 66.0129 5.67743 66.0129 5.5484C66.0129 5.41937 66.0516 5.31614 66.1419 5.22582C66.2322 5.1355 66.3355 5.09679 66.4645 5.09679H69.6258V3.22582H66.8903C66.7613 3.22582 66.658 3.18711 66.5677 3.09679C66.4774 3.00646 66.4387 2.90324 66.4387 2.7742C66.4387 2.64517 66.4774 2.54195 66.5677 2.45162C66.658 2.3613 66.7613 2.32259 66.8903 2.32259H69.6258V0.529044C69.6258 0.387108 69.6774 0.270979 69.7677 0.167753C69.8709 0.0774308 69.9871 0.0258179 70.1161 0.0258179C70.258 0.0258179 70.3742 0.0774308 70.4774 0.167753C70.5677 0.258076 70.6193 0.374205 70.6193 0.529044V2.3355H73.4967C73.6258 2.3355 73.729 2.3742 73.8193 2.46453C73.9096 2.55485 73.9484 2.65808 73.9484 2.78711C73.9484 2.91614 73.9096 3.01937 73.8193 3.10969C73.729 3.20001 73.6258 3.23872 73.4967 3.23872H70.6193V5.10969H74.4C74.529 5.10969 74.6322 5.1484 74.7226 5.23872C74.8129 5.32904 74.8516 5.43227 74.8516 5.5613C74.8516 5.69033 74.8129 5.79356 74.7226 5.88388C74.6322 5.9742 74.529 6.01291 74.4 6.01291H72.3871V7.84517H74.3097C74.4387 7.84517 74.5419 7.89679 74.6322 7.98711C74.7226 8.07743 74.7613 8.19356 74.7613 8.30969C74.7613 8.42582 74.7226 8.54195 74.6322 8.63227C74.5419 8.72259 74.4387 8.77421 74.3097 8.77421H72.3871V12.2323C72.3871 12.7226 72.3226 13.1355 72.1806 13.4452C72.0387 13.7548 71.8064 13.9742 71.458 14.1161C71.1097 14.2581 70.6064 14.3226 69.9613 14.3226V14.3097ZM69.4838 11.8452C69.3806 11.9226 69.2645 11.9613 69.1226 11.9484C68.9806 11.9484 68.8774 11.8839 68.7871 11.7807C68.658 11.6 68.4903 11.3936 68.2838 11.1613C68.0774 10.929 67.8838 10.6839 67.6903 10.4516C67.4967 10.2194 67.329 10.0258 67.1742 9.88388C67.0967 9.78066 67.0451 9.66453 67.0451 9.53549C67.0451 9.40646 67.0968 9.30324 67.2 9.21291C67.3032 9.12259 67.4193 9.07098 67.5613 9.08388C67.6903 9.08388 67.8064 9.1484 67.8967 9.25162C68.0516 9.39356 68.2322 9.58711 68.4387 9.81937C68.6451 10.0516 68.8516 10.2839 69.0451 10.5161C69.2516 10.7484 69.4193 10.9548 69.5484 11.1226C69.6387 11.2258 69.6774 11.3419 69.6645 11.4839C69.6516 11.6129 69.5871 11.7419 69.4709 11.8452H69.4838Z" fill="#333333"/>
<path d="M79.8709 13.9742C79.7419 13.9742 79.6129 13.9355 79.5096 13.8452C79.4064 13.7549 79.3548 13.6387 79.3419 13.4839C79.3419 13.3549 79.3677 13.2516 79.4451 13.1484C79.5225 13.0452 79.6387 12.9936 79.7677 12.9936C80.2322 12.9936 80.5935 12.9549 80.8645 12.9032C81.1225 12.8516 81.329 12.7355 81.458 12.542C81.5871 12.3484 81.6774 12.0516 81.7419 11.6516C81.8064 11.2645 81.858 10.8903 81.8967 10.5032C81.9355 10.1161 81.9742 9.71615 81.9871 9.31615C82.0129 8.90325 81.9484 8.61938 81.7935 8.47744C81.6387 8.3355 81.3548 8.25809 80.929 8.25809H79.6645C79.4709 9.5097 79.1226 10.5807 78.6451 11.4581C78.1677 12.3355 77.5096 13.1097 76.7096 13.7549C76.6064 13.8323 76.4774 13.8839 76.3226 13.8839C76.1677 13.8839 76.0387 13.8323 75.9484 13.7291C75.858 13.6129 75.8193 13.4968 75.8451 13.3549C75.8709 13.2258 75.9355 13.1097 76.0516 13.0323C76.7225 12.5161 77.2645 11.9226 77.6645 11.2387C78.0774 10.5678 78.3742 9.76776 78.5677 8.86454C78.7613 7.96131 78.8774 6.90325 78.9032 5.69034C78.1419 5.63873 77.6129 5.43228 77.329 5.08389C77.0451 4.7355 76.9032 4.14196 76.9032 3.30325C76.9032 2.69679 76.9806 2.21938 77.1226 1.87099C77.2645 1.5226 77.5226 1.27744 77.8838 1.1355C78.2451 0.993569 78.7355 0.91615 79.3677 0.91615H80.658C81.3032 0.91615 81.7935 0.993569 82.1548 1.1355C82.5161 1.27744 82.7613 1.5226 82.9032 1.87099C83.0451 2.21938 83.1225 2.69679 83.1225 3.30325C83.1225 3.9097 83.0451 4.38712 82.9032 4.74841C82.7613 5.09679 82.5032 5.34196 82.1548 5.48389C81.8064 5.62583 81.3032 5.69034 80.658 5.69034H79.8709C79.8709 5.97421 79.8451 6.25808 79.8322 6.52905C79.8193 6.80002 79.7935 7.07099 79.7677 7.32905H81.0064C81.7419 7.32905 82.258 7.48389 82.5677 7.78067C82.8774 8.07744 83.0064 8.58067 82.9677 9.27744C82.9419 9.78067 82.9161 10.2452 82.8774 10.6452C82.8387 11.0581 82.7871 11.4581 82.7096 11.8581C82.6193 12.4387 82.4645 12.8774 82.2709 13.1871C82.0645 13.4968 81.7806 13.7032 81.3935 13.8194C81.0064 13.9355 80.5032 13.9871 79.858 13.9871L79.8709 13.9742ZM79.4838 4.74841H80.5935C81.0193 4.74841 81.3419 4.7097 81.5613 4.61938C81.7806 4.54196 81.9355 4.38712 82.0129 4.18067C82.0903 3.97421 82.1419 3.67744 82.1419 3.29034C82.1419 2.90325 82.1032 2.59357 82.0129 2.38712C81.9355 2.18067 81.7806 2.03873 81.5613 1.94841C81.3419 1.87099 81.0193 1.81938 80.5935 1.81938H79.4838C79.0709 1.81938 78.7484 1.85809 78.529 1.94841C78.3096 2.02583 78.1548 2.18067 78.0774 2.38712C78 2.59357 77.9484 2.89034 77.9484 3.29034C77.9484 3.69034 77.9871 3.97421 78.0774 4.18067C78.1548 4.38712 78.3096 4.54196 78.529 4.61938C78.7484 4.69679 79.0709 4.74841 79.4838 4.74841ZM85.5096 10.8645C85.3806 10.8645 85.2645 10.8129 85.1742 10.7226C85.0838 10.6323 85.0322 10.5161 85.0322 10.3871V1.89679C85.0322 1.75486 85.0838 1.63873 85.1742 1.56131C85.2645 1.48389 85.3806 1.43228 85.5096 1.43228C85.6387 1.43228 85.7548 1.47099 85.8451 1.56131C85.9355 1.63873 85.9742 1.75486 85.9742 1.89679V10.3871C85.9742 10.5161 85.9355 10.6323 85.8451 10.7226C85.7548 10.8129 85.6516 10.8645 85.5096 10.8645ZM86.6064 14.1678C86.4774 14.1678 86.3484 14.1161 86.2451 14.0258C86.1419 13.9226 86.0903 13.8065 86.0903 13.6774C86.0903 13.5355 86.1161 13.4194 86.2064 13.3161C86.2967 13.2129 86.4129 13.1742 86.5548 13.1613C87.0451 13.1355 87.3935 13.0839 87.6258 13.0065C87.858 12.9291 88.0129 12.8 88.0903 12.6065C88.1677 12.4129 88.2064 12.1161 88.2064 11.7291V0.800021C88.2064 0.658085 88.258 0.541956 88.3484 0.451634C88.4387 0.361311 88.5548 0.322601 88.6838 0.322601C88.8129 0.322601 88.929 0.361311 89.0193 0.451634C89.1096 0.541956 89.1613 0.658085 89.1613 0.800021V11.8452C89.1613 12.4387 89.0967 12.8903 88.9548 13.2258C88.8129 13.5613 88.5677 13.8065 88.1935 13.9484C87.8322 14.0903 87.2903 14.1678 86.5935 14.1678H86.6064Z" fill="#333333"/>
<path d="M92.0258 9.23872C91.8967 9.30323 91.7677 9.31614 91.6387 9.29033C91.5096 9.26452 91.4193 9.1871 91.3419 9.07097C91.2903 8.95485 91.2903 8.83872 91.329 8.72259C91.3677 8.60646 91.458 8.51614 91.5871 8.46452C92.0516 8.28388 92.5419 8.03872 93.0709 7.74194C93.5999 7.44517 94.1032 7.13549 94.5935 6.80001C95.0838 6.46452 95.5096 6.14194 95.8709 5.84517H92.0258C91.9225 5.84517 91.8322 5.80646 91.7677 5.72904C91.6903 5.65162 91.6645 5.5613 91.6645 5.45807C91.6645 5.35484 91.7032 5.26452 91.7677 5.20001C91.8451 5.12259 91.9225 5.09678 92.0258 5.09678H98.1419V4.11614H93.3419C93.2387 4.11614 93.1483 4.07743 93.0838 4.01291C93.0064 3.94839 92.9806 3.85807 92.9806 3.75484C92.9806 3.63872 93.0193 3.54839 93.0838 3.48388C93.1612 3.41936 93.2387 3.38065 93.3419 3.38065H98.1419V2.43872H92.387C92.2838 2.43872 92.1935 2.40001 92.129 2.33549C92.0516 2.25807 92.0258 2.18065 92.0258 2.07743C92.0258 1.9613 92.0645 1.87097 92.129 1.80646C92.2064 1.74194 92.2838 1.70323 92.387 1.70323H96.2064C96.1032 1.52259 95.9871 1.34194 95.8709 1.14839C95.7548 0.954845 95.6516 0.800006 95.5483 0.65807C95.4709 0.541941 95.458 0.425812 95.4967 0.322587C95.5354 0.206457 95.6129 0.129038 95.7161 0.0774252C96 -0.0516071 96.2064 5.85243e-06 96.3612 0.232264C96.4774 0.400006 96.6193 0.632264 96.7741 0.941941C96.9419 1.25162 97.0838 1.49678 97.187 1.70323H100.116C100.232 1.49678 100.361 1.25162 100.516 0.954845C100.671 0.65807 100.8 0.425812 100.89 0.270974C100.942 0.154845 101.032 0.0774252 101.174 0.0387155C101.303 5.85243e-06 101.432 5.85243e-06 101.548 0.0516188C101.664 0.103232 101.742 0.180651 101.793 0.29678C101.845 0.412909 101.832 0.529038 101.768 0.65807C101.69 0.787103 101.587 0.954845 101.471 1.14839C101.355 1.34194 101.239 1.53549 101.135 1.70323H104.826C104.929 1.70323 105.019 1.74194 105.084 1.80646C105.161 1.87097 105.187 1.9613 105.187 2.07743C105.187 2.18065 105.148 2.27097 105.084 2.33549C105.006 2.41291 104.929 2.43872 104.826 2.43872H99.1096V3.38065H103.858C103.961 3.38065 104.052 3.41936 104.116 3.48388C104.194 3.54839 104.219 3.63872 104.219 3.75484C104.219 3.85807 104.181 3.94839 104.116 4.01291C104.039 4.07743 103.961 4.11614 103.858 4.11614H99.1096V5.09678H105.2C105.303 5.09678 105.394 5.13549 105.458 5.20001C105.535 5.27743 105.561 5.35484 105.561 5.45807C105.561 5.5613 105.523 5.65162 105.458 5.72904C105.394 5.80646 105.303 5.84517 105.2 5.84517H101.406C101.781 6.14194 102.193 6.45162 102.671 6.7613C103.135 7.07097 103.626 7.36775 104.142 7.63872C104.658 7.90968 105.148 8.14194 105.639 8.34839C105.755 8.3871 105.832 8.47743 105.884 8.59355C105.935 8.72259 105.935 8.82581 105.884 8.92904C105.819 9.05807 105.729 9.13549 105.6 9.1871C105.471 9.23872 105.342 9.22581 105.213 9.1613C104.31 8.74839 103.432 8.27097 102.568 7.72904C101.703 7.1871 100.942 6.55484 100.271 5.83226H97.0193C96.6064 6.27097 96.129 6.69678 95.5741 7.10968C95.0193 7.52259 94.4387 7.92259 93.8322 8.28388C93.2258 8.64517 92.6193 8.95485 92 9.22581L92.0258 9.23872ZM105.084 14.2839C103.6 14.1548 102.219 13.871 100.955 13.4065C99.6903 12.9419 98.6193 12.2968 97.729 11.4452H95.8967V12.9677C96.387 12.9032 96.8645 12.8387 97.329 12.7871C97.7935 12.7226 98.1806 12.671 98.5161 12.6323C98.6451 12.6065 98.7483 12.6323 98.8387 12.6968C98.929 12.7613 98.9806 12.8516 98.9935 12.9807C99.0193 13.2516 98.9032 13.4065 98.6193 13.4581C98.2322 13.5226 97.7677 13.5871 97.2258 13.6645C96.6838 13.7419 96.1032 13.8194 95.4967 13.8968C94.8903 13.9742 94.2967 14.0516 93.729 14.1161C93.1483 14.1807 92.6451 14.2323 92.2064 14.271C92.0645 14.271 91.9354 14.2452 91.8451 14.1677C91.7419 14.0903 91.6903 13.9871 91.6645 13.8452C91.6645 13.7161 91.6903 13.6129 91.7935 13.5097C91.8967 13.4065 92 13.3548 92.129 13.3419C92.4903 13.3161 92.9161 13.2903 93.4193 13.2387C93.9096 13.1871 94.4258 13.1355 94.9548 13.0839V9.50968C94.9548 8.7613 95.1225 8.23226 95.4709 7.93549C95.8064 7.63872 96.4 7.49678 97.2516 7.49678H98.1677V6.67097C98.1677 6.52904 98.2193 6.41291 98.3096 6.30968C98.4 6.20646 98.5161 6.16775 98.6451 6.16775C98.787 6.16775 98.9032 6.21936 99.0064 6.30968C99.0967 6.40001 99.1483 6.51614 99.1483 6.67097V7.49678H99.9225C100.774 7.49678 101.368 7.63872 101.703 7.93549C102.039 8.21936 102.193 8.73549 102.193 9.48388C102.193 10.2323 102.026 10.7613 101.703 11.0452C101.381 11.329 100.774 11.471 99.9225 11.471H98.929C99.1999 11.6516 99.4709 11.8065 99.7677 11.9613C100.052 12.1161 100.361 12.2581 100.671 12.4C100.864 12.271 101.097 12.129 101.368 11.9613C101.639 11.7936 101.91 11.6129 102.193 11.4323C102.477 11.2516 102.748 11.071 102.993 10.9032C103.239 10.7355 103.432 10.6065 103.587 10.5032C103.703 10.4258 103.819 10.3871 103.948 10.3871C104.077 10.3871 104.181 10.4516 104.258 10.5548C104.335 10.6581 104.374 10.7742 104.361 10.9032C104.361 11.0323 104.284 11.1355 104.181 11.2C104 11.329 103.755 11.471 103.458 11.6516C103.161 11.8323 102.852 12.0258 102.516 12.2194C102.181 12.4129 101.884 12.5936 101.6 12.7613C102.155 12.9419 102.748 13.071 103.355 13.1742C103.961 13.2774 104.606 13.3548 105.264 13.3936C105.406 13.3936 105.523 13.4581 105.6 13.5613C105.677 13.6645 105.716 13.7807 105.69 13.9226C105.626 14.2065 105.432 14.3355 105.084 14.3097V14.2839ZM95.8967 10.7097H99.8451C100.335 10.7097 100.671 10.6452 100.877 10.529C101.084 10.4129 101.2 10.1677 101.239 9.79356H95.8967V10.7097ZM95.9096 9.08388H101.239C101.2 8.74839 101.071 8.51614 100.877 8.41291C100.671 8.30968 100.335 8.24517 99.8451 8.24517H97.3032C96.8258 8.24517 96.4903 8.29678 96.2838 8.41291C96.0774 8.52904 95.9612 8.74839 95.9096 9.08388Z" fill="#333333"/>
<path d="M107.213 4.06451C107.097 4.06451 107.006 4.0258 106.916 3.93548C106.839 3.84515 106.787 3.74193 106.787 3.6387C106.787 3.53548 106.826 3.43225 106.916 3.34193C106.994 3.26451 107.097 3.2129 107.213 3.2129H112.065C112.181 3.2129 112.271 3.25161 112.348 3.34193C112.426 3.43225 112.465 3.52257 112.465 3.6387C112.465 3.75483 112.426 3.85806 112.348 3.93548C112.271 4.0129 112.181 4.06451 112.065 4.06451H107.213ZM115.265 8.69677C114.735 8.69677 114.323 8.64515 114.039 8.54193C113.742 8.4387 113.535 8.25806 113.419 8.0129C113.303 7.76773 113.239 7.43225 113.239 7.00644V5.38064C113.11 5.54838 112.968 5.70322 112.839 5.87096C112.71 6.0387 112.568 6.18064 112.426 6.32257C112.348 6.4129 112.245 6.46451 112.116 6.46451C111.987 6.46451 111.884 6.4258 111.794 6.34838C111.703 6.27096 111.652 6.16773 111.652 6.05161C111.574 6.12902 111.497 6.15483 111.394 6.15483H107.897C107.781 6.15483 107.69 6.11612 107.6 6.0258C107.523 5.93548 107.471 5.83225 107.471 5.72902C107.471 5.6258 107.51 5.50967 107.6 5.43225C107.677 5.34193 107.781 5.30322 107.897 5.30322H111.394C111.51 5.30322 111.6 5.34193 111.69 5.43225C111.768 5.52257 111.819 5.6258 111.819 5.72902C112.09 5.44515 112.361 5.13548 112.645 4.77419C112.929 4.4129 113.174 4.0387 113.406 3.66451C113.639 3.29031 113.832 2.95483 113.974 2.64515C114.026 2.52902 114.116 2.45161 114.232 2.4129C114.348 2.37419 114.465 2.37419 114.581 2.4258C114.581 2.4258 114.619 2.45161 114.658 2.47741V1.90967H112.619C112.516 1.90967 112.426 1.87096 112.348 1.80644C112.271 1.72902 112.232 1.65161 112.232 1.54838C112.232 1.43225 112.271 1.34193 112.348 1.26451C112.426 1.18709 112.516 1.16128 112.619 1.16128H114.658V0.503218C114.658 0.374186 114.697 0.258057 114.787 0.180637C114.877 0.103218 114.981 0.0516052 115.11 0.0516052C115.239 0.0516052 115.342 0.0903149 115.432 0.180637C115.523 0.258057 115.561 0.374186 115.561 0.503218V1.14838H117.677V0.503218C117.677 0.374186 117.716 0.258057 117.806 0.180637C117.897 0.103218 118 0.0516052 118.129 0.0516052C118.258 0.0516052 118.361 0.0903149 118.452 0.180637C118.542 0.258057 118.581 0.374186 118.581 0.503218V1.14838H120.774C120.89 1.14838 120.981 1.18709 121.058 1.25161C121.135 1.32902 121.161 1.41935 121.161 1.53548C121.161 1.6387 121.123 1.72902 121.058 1.79354C120.981 1.87096 120.89 1.89677 120.774 1.89677H118.581V2.4129C118.581 2.54193 118.542 2.65806 118.452 2.74838C118.361 2.8387 118.258 2.87741 118.129 2.87741C118 2.87741 117.897 2.8258 117.806 2.73548C117.832 2.8387 117.806 2.92902 117.781 3.01935C117.742 3.09677 117.69 3.2129 117.613 3.34193C117.548 3.47096 117.484 3.59999 117.419 3.74193H120.684C120.774 3.74193 120.852 3.76773 120.929 3.83225C120.994 3.89677 121.032 3.97419 121.032 4.06451C121.032 4.15483 120.994 4.23225 120.929 4.30967C120.865 4.37419 120.787 4.4129 120.684 4.4129H117.381V5.18709H120.194C120.271 5.18709 120.348 5.2129 120.413 5.27741C120.477 5.34193 120.503 5.40644 120.503 5.49677C120.503 5.58709 120.477 5.6516 120.413 5.71612C120.348 5.78064 120.284 5.80644 120.194 5.80644H117.381V6.58064H120.194C120.271 6.58064 120.348 6.60644 120.413 6.67096C120.477 6.73548 120.503 6.79999 120.503 6.89032C120.503 6.98064 120.477 7.04515 120.413 7.10967C120.348 7.17419 120.284 7.19999 120.194 7.19999H117.381V8.0387H120.723C120.813 8.0387 120.89 8.07741 120.955 8.14193C121.019 8.20644 121.045 8.28386 121.045 8.38709C121.045 8.49031 121.019 8.55483 120.955 8.61935C120.89 8.68386 120.813 8.70967 120.723 8.70967H115.29L115.265 8.69677ZM107.884 8.27096C107.768 8.27096 107.677 8.23225 107.587 8.14193C107.51 8.0516 107.458 7.94838 107.458 7.84515C107.458 7.74193 107.497 7.6387 107.587 7.54838C107.665 7.47096 107.768 7.41935 107.884 7.41935H111.381C111.497 7.41935 111.587 7.45806 111.677 7.54838C111.755 7.6258 111.806 7.72902 111.806 7.84515C111.806 7.96128 111.768 8.06451 111.677 8.14193C111.6 8.23225 111.497 8.27096 111.381 8.27096H107.884ZM107.897 1.97419C107.781 1.97419 107.69 1.93548 107.6 1.84515C107.523 1.75483 107.471 1.65161 107.471 1.54838C107.471 1.44515 107.51 1.32902 107.6 1.25161C107.69 1.17419 107.781 1.12257 107.897 1.12257H111.381C111.497 1.12257 111.587 1.16128 111.677 1.25161C111.755 1.34193 111.806 1.44515 111.806 1.54838C111.806 1.65161 111.768 1.76773 111.677 1.84515C111.6 1.93548 111.497 1.97419 111.381 1.97419H107.897ZM109.665 13.8452C109.123 13.8452 108.71 13.7806 108.4 13.6516C108.09 13.5226 107.884 13.3032 107.755 12.9806C107.626 12.671 107.574 12.2193 107.574 11.6516C107.574 11.0839 107.639 10.6581 107.755 10.3484C107.884 10.0387 108.09 9.80644 108.4 9.67741C108.71 9.54838 109.123 9.47096 109.665 9.47096C110.206 9.47096 110.632 9.53548 110.929 9.67741C111.226 9.80644 111.445 10.0387 111.561 10.3484C111.69 10.6581 111.742 11.0968 111.742 11.6516C111.742 12.2064 111.677 12.6581 111.561 12.9806C111.432 13.2903 111.226 13.5226 110.929 13.6516C110.632 13.7806 110.206 13.8452 109.665 13.8452ZM109.665 13.0064C109.987 13.0064 110.232 12.9677 110.4 12.9032C110.568 12.8387 110.684 12.7097 110.748 12.5032C110.813 12.2968 110.839 12.0258 110.839 11.6516C110.839 11.1097 110.761 10.7484 110.619 10.5677C110.465 10.3871 110.155 10.3097 109.665 10.3097C109.174 10.3097 108.865 10.4 108.71 10.5677C108.555 10.7355 108.477 11.1097 108.477 11.6516C108.477 12.0258 108.503 12.3097 108.568 12.5032C108.632 12.6968 108.748 12.8258 108.929 12.9032C109.11 12.9677 109.355 13.0064 109.677 13.0064H109.665ZM112.8 14.3097C112.671 14.3355 112.542 14.3097 112.439 14.2581C112.335 14.2064 112.258 14.1161 112.232 13.9742C112.206 13.8452 112.232 13.7419 112.297 13.6387C112.374 13.5355 112.477 13.471 112.632 13.4581C113.329 13.3419 113.987 13.1871 114.581 12.9935C115.174 12.8 115.716 12.5677 116.219 12.3097C115.471 11.6903 114.826 10.9677 114.31 10.129H113.019C112.916 10.129 112.826 10.0903 112.761 10.0129C112.684 9.93548 112.658 9.84515 112.658 9.74193C112.658 9.6387 112.697 9.54838 112.761 9.48386C112.826 9.41935 112.916 9.38064 113.019 9.38064H118.116C118.568 9.38064 118.916 9.47096 119.148 9.66451C119.381 9.84515 119.497 10.0903 119.484 10.3742C119.484 10.6581 119.316 10.9677 119.019 11.2774C118.619 11.6774 118.194 12.0387 117.755 12.3484C118.697 12.8903 119.781 13.2516 121.006 13.4452C121.148 13.471 121.265 13.5226 121.329 13.6258C121.406 13.729 121.432 13.8452 121.406 13.9742C121.329 14.2452 121.123 14.3484 120.787 14.3097C120.065 14.1806 119.381 14 118.735 13.7548C118.09 13.5097 117.497 13.2129 116.942 12.8645C116.374 13.2 115.742 13.4839 115.058 13.729C114.361 13.9742 113.613 14.1677 112.8 14.3226V14.3097ZM114.142 5.18709H116.452V4.4129H114.142V5.18709ZM114.142 6.58064H116.452V5.80644H114.142V6.58064ZM115.265 8.0387H116.439V7.19999H114.129C114.155 7.52257 114.245 7.74193 114.413 7.85806C114.581 7.97419 114.865 8.0387 115.252 8.0387H115.265ZM114.348 3.74193H116.452C116.529 3.57419 116.606 3.39354 116.697 3.18709C116.787 2.98064 116.852 2.8258 116.89 2.72257C116.942 2.59354 117.032 2.51612 117.161 2.46451C117.29 2.4129 117.406 2.4258 117.523 2.46451C117.548 2.46451 117.574 2.49031 117.6 2.51612C117.626 2.54193 117.652 2.55483 117.665 2.58064C117.665 2.55483 117.652 2.50322 117.652 2.4258V1.90967H115.535V2.4258C115.535 2.55483 115.497 2.67096 115.406 2.76128C115.316 2.85161 115.213 2.89031 115.084 2.89031C115.032 2.89031 114.981 2.89031 114.942 2.86451C114.903 2.8387 114.852 2.8258 114.813 2.79999C114.813 2.87741 114.8 2.95483 114.761 3.03225C114.697 3.14838 114.632 3.26451 114.568 3.38064C114.503 3.49677 114.426 3.6258 114.361 3.74193H114.348ZM117.006 11.8452C117.239 11.7032 117.445 11.5484 117.652 11.3806C117.858 11.2129 118.039 11.0452 118.219 10.8903C118.452 10.671 118.529 10.4903 118.477 10.3484C118.426 10.2064 118.219 10.129 117.858 10.129H115.277C115.781 10.8 116.361 11.3677 117.006 11.8452Z" fill="#333333"/>
<path d="M130.348 13.9355C129.497 13.9355 128.852 13.8581 128.387 13.7161C127.923 13.5742 127.613 13.329 127.432 12.9806C127.252 12.6323 127.174 12.1548 127.174 11.5355V9.10967C126.568 9.49677 125.936 9.85806 125.265 10.2064C124.606 10.5548 123.923 10.8903 123.2 11.2129C123.071 11.2774 122.929 11.2903 122.8 11.2645C122.671 11.2387 122.555 11.1484 122.477 11.0194C122.4 10.8903 122.4 10.7484 122.452 10.6193C122.503 10.4903 122.606 10.3871 122.736 10.3355C124 9.81935 125.187 9.2258 126.323 8.54193C127.458 7.85806 128.49 7.12258 129.445 6.30967H122.852C122.723 6.30967 122.619 6.27096 122.529 6.18064C122.439 6.09032 122.4 5.98709 122.4 5.85806C122.4 5.72903 122.439 5.6258 122.529 5.53548C122.619 5.44516 122.723 5.40645 122.852 5.40645H128.336V3.34193H124.684C124.555 3.34193 124.452 3.30322 124.361 3.2129C124.271 3.12258 124.232 3.01935 124.232 2.89032C124.232 2.76129 124.271 2.65806 124.361 2.56774C124.452 2.47742 124.555 2.43871 124.684 2.43871H128.336V0.632254C128.336 0.490319 128.387 0.37419 128.477 0.270964C128.568 0.180641 128.684 0.129028 128.813 0.129028C128.955 0.129028 129.071 0.180641 129.174 0.270964C129.265 0.361286 129.316 0.477415 129.316 0.632254V2.43871H131.703C131.832 2.43871 131.936 2.47742 132.026 2.56774C132.116 2.65806 132.155 2.76129 132.155 2.89032C132.155 3.01935 132.116 3.12258 132.026 3.2129C131.936 3.30322 131.832 3.34193 131.703 3.34193H129.316V5.40645H130.465C131.174 4.72258 131.819 4.0129 132.387 3.26451C132.955 2.51613 133.458 1.76774 133.871 0.993544C133.936 0.864512 134.026 0.787093 134.168 0.748383C134.297 0.709673 134.426 0.722577 134.555 0.799996C134.671 0.877415 134.736 0.967738 134.774 1.08387C134.8 1.2 134.774 1.31613 134.71 1.43225C134.284 2.16774 133.832 2.86451 133.329 3.52258C132.839 4.18064 132.297 4.8129 131.729 5.40645H136.232C136.361 5.40645 136.477 5.44516 136.568 5.53548C136.658 5.6258 136.697 5.72903 136.697 5.85806C136.697 5.98709 136.658 6.09032 136.568 6.18064C136.477 6.27096 136.374 6.30967 136.232 6.30967H130.813C130.413 6.69677 129.987 7.05806 129.548 7.41935C129.11 7.78064 128.658 8.11613 128.181 8.45161V10.0645C128.774 9.89677 129.394 9.70322 130.052 9.49677C130.71 9.27742 131.368 9.05806 132 8.8129C132.632 8.56774 133.226 8.33548 133.755 8.10322C133.897 8.03871 134.039 8.0258 134.168 8.05161C134.297 8.07741 134.387 8.15483 134.452 8.29677C134.529 8.43871 134.542 8.58064 134.49 8.69677C134.439 8.8258 134.348 8.91613 134.219 8.98064C133.626 9.2258 132.994 9.47096 132.297 9.72903C131.6 9.97419 130.903 10.2064 130.194 10.4129C129.484 10.6194 128.813 10.8129 128.168 10.9806V11.5355C128.168 11.9355 128.219 12.2452 128.323 12.4516C128.426 12.6581 128.632 12.8129 128.942 12.8903C129.252 12.9677 129.716 13.0194 130.336 13.0194H131.858C132.426 13.0194 132.877 12.9806 133.213 12.8903C133.548 12.8 133.806 12.6452 133.974 12.4129C134.142 12.1806 134.271 11.8581 134.336 11.4452C134.361 11.3161 134.426 11.2 134.555 11.1226C134.684 11.0452 134.813 11.0323 134.968 11.071C135.252 11.1484 135.381 11.3548 135.329 11.6645C135.2 12.529 134.865 13.1355 134.323 13.471C133.781 13.8064 132.968 13.9742 131.858 13.9742H130.336L130.348 13.9355Z" fill="#333333"/>
<path d="M139.045 13.8581C138.916 13.9355 138.774 13.9484 138.619 13.9226C138.465 13.8968 138.348 13.8194 138.271 13.6774C138.194 13.5484 138.168 13.4065 138.219 13.2645C138.271 13.1226 138.361 13.0194 138.503 12.9419C140.439 12.0516 141.935 10.8903 142.981 9.45808C144.026 8.02582 144.555 6.37421 144.555 4.50324V0.890336C144.555 0.735497 144.606 0.606465 144.697 0.516142C144.8 0.425819 144.916 0.374207 145.058 0.374207C145.2 0.374207 145.316 0.425819 145.419 0.516142C145.51 0.606465 145.561 0.735497 145.561 0.890336V4.21937C145.561 5.12259 145.716 6.01292 146.039 6.87743C146.361 7.74195 146.8 8.55485 147.368 9.32905C147.935 10.0903 148.581 10.7742 149.329 11.3807C150.077 11.9871 150.865 12.4774 151.703 12.8387C151.832 12.8903 151.935 12.9936 151.987 13.1484C152.039 13.3032 152.026 13.4452 151.948 13.5871C151.871 13.7161 151.742 13.8065 151.587 13.8452C151.432 13.8839 151.277 13.871 151.135 13.7936C149.716 13.0452 148.49 12.1032 147.471 10.9807C146.452 9.85808 145.677 8.50324 145.161 6.92904C144.813 8.45163 144.116 9.79356 143.071 10.929C142.026 12.0645 140.697 13.0452 139.058 13.8581H139.045Z" fill="#333333"/>
<path d="M154.903 10.9419C154.787 11.0193 154.671 11.0323 154.529 10.9935C154.4 10.9548 154.297 10.8774 154.219 10.7484C154.142 10.6323 154.129 10.5161 154.168 10.3742C154.206 10.2452 154.284 10.1419 154.4 10.0645C154.942 9.75483 155.471 9.38064 155.974 8.95483C156.477 8.51612 156.903 8.06451 157.265 7.58709C157.342 7.47096 157.458 7.40644 157.587 7.38064C157.716 7.35483 157.845 7.38064 157.961 7.47096C158.077 7.54838 158.142 7.65161 158.168 7.79354C158.194 7.93548 158.168 8.06451 158.077 8.16773C157.69 8.67096 157.213 9.17419 156.632 9.67741C156.052 10.1806 155.471 10.5935 154.903 10.929V10.9419ZM158.374 12.8387C158.245 12.8387 158.129 12.7871 158.026 12.6968C157.923 12.5935 157.884 12.4774 157.884 12.3484C157.884 12.2064 157.935 12.0903 158.026 11.9871C158.129 11.8968 158.245 11.8452 158.374 11.8452C158.813 11.8452 159.148 11.8064 159.381 11.7161C159.613 11.6258 159.781 11.471 159.871 11.2258C159.961 10.9935 160.013 10.6452 160.013 10.2064V5.47096H155.419C155.29 5.47096 155.174 5.41935 155.071 5.32903C154.968 5.2258 154.929 5.10967 154.929 4.98064C154.929 4.85161 154.981 4.73548 155.071 4.63225C155.161 4.52902 155.29 4.49032 155.419 4.49032H160.013V2.34838C160.013 2.20644 160.065 2.09032 160.155 1.98709C160.258 1.89677 160.374 1.84515 160.503 1.84515C160.645 1.84515 160.761 1.89677 160.865 1.98709C160.955 2.07741 161.006 2.19354 161.006 2.34838V4.49032H165.329C165.471 4.49032 165.587 4.54193 165.69 4.63225C165.781 4.73548 165.832 4.85161 165.832 4.98064C165.832 5.10967 165.781 5.2258 165.69 5.32903C165.6 5.43225 165.484 5.47096 165.329 5.47096H161.006V10.2064C161.006 10.8774 160.916 11.4064 160.735 11.7935C160.555 12.1806 160.271 12.4516 159.884 12.6064C159.497 12.7613 158.994 12.8387 158.374 12.8387ZM166.581 10.6452C166.477 10.7355 166.361 10.7742 166.219 10.7742C166.077 10.7742 165.961 10.7097 165.871 10.6064C165.639 10.3742 165.368 10.1032 165.032 9.80644C164.697 9.50967 164.361 9.2129 164.013 8.94193C163.665 8.65806 163.342 8.4387 163.032 8.25806C162.916 8.18064 162.852 8.06451 162.826 7.93548C162.8 7.80644 162.826 7.67741 162.89 7.56128C162.968 7.44515 163.084 7.38064 163.213 7.34193C163.342 7.31612 163.471 7.34193 163.587 7.41935C163.897 7.6258 164.245 7.87096 164.619 8.16773C164.994 8.46451 165.368 8.76128 165.729 9.07096C166.09 9.38064 166.387 9.66451 166.619 9.92257C166.71 10.0258 166.761 10.1548 166.748 10.2968C166.748 10.4387 166.684 10.5548 166.568 10.6581L166.581 10.6452Z" fill="#333333"/>
<path d="M171.148 7.75483C171.019 7.75483 170.903 7.70322 170.8 7.6C170.697 7.49677 170.658 7.38064 170.658 7.23871C170.658 7.09677 170.71 6.99354 170.8 6.89032C170.903 6.78709 171.019 6.74838 171.148 6.74838H180.955C181.084 6.74838 181.2 6.8 181.303 6.89032C181.406 6.99354 181.445 7.10967 181.445 7.23871C181.445 7.36774 181.394 7.49677 181.303 7.6C181.2 7.70322 181.084 7.75483 180.955 7.75483H171.148Z" fill="#333333"/>
<path d="M196.903 12.1032C196.774 12.1677 196.658 12.1806 196.529 12.129C196.4 12.0903 196.297 12 196.232 11.8839C196.103 11.6516 195.923 11.3935 195.716 11.0968C195.51 10.8 195.277 10.4774 195.032 10.1548C194.439 10.2581 193.742 10.3613 192.955 10.4774C192.168 10.5935 191.342 10.6968 190.503 10.8C189.652 10.9032 188.839 10.9935 188.052 11.0839C187.264 11.1742 186.581 11.2258 185.987 11.2645C185.858 11.2645 185.729 11.2387 185.626 11.1355C185.523 11.0452 185.471 10.929 185.458 10.8C185.458 10.6581 185.484 10.529 185.587 10.4258C185.677 10.3226 185.793 10.271 185.923 10.2581C186.116 10.2581 186.323 10.2323 186.555 10.2064C186.787 10.1806 187.006 10.1677 187.264 10.1548C187.626 9.66451 187.987 9.12257 188.361 8.50322C188.735 7.88386 189.097 7.25161 189.432 6.59354C189.781 5.93548 190.09 5.30322 190.387 4.69677C190.671 4.09032 190.916 3.54838 191.097 3.07096C191.148 2.94193 191.239 2.8387 191.355 2.78709C191.471 2.73548 191.613 2.72257 191.742 2.78709C191.871 2.8387 191.961 2.92903 192.013 3.04515C192.064 3.17419 192.077 3.30322 192.013 3.43225C191.781 4.0258 191.471 4.72257 191.084 5.49677C190.697 6.27096 190.284 7.05806 189.832 7.84515C189.381 8.64515 188.916 9.36774 188.452 10.0387C189.11 9.97419 189.793 9.90967 190.516 9.83225C191.226 9.75483 191.923 9.67741 192.593 9.58709C193.264 9.49677 193.871 9.41935 194.4 9.32903C194.103 8.95483 193.794 8.59354 193.497 8.23225C193.187 7.87096 192.903 7.56128 192.632 7.29032C192.542 7.19999 192.49 7.08386 192.503 6.94193C192.516 6.79999 192.568 6.68386 192.671 6.59354C192.774 6.50322 192.89 6.45161 193.032 6.45161C193.174 6.45161 193.277 6.50322 193.368 6.60644C193.652 6.90322 193.961 7.26451 194.31 7.67741C194.658 8.09032 195.006 8.52903 195.368 8.98064C195.729 9.43225 196.064 9.87096 196.361 10.2968C196.658 10.7226 196.916 11.0839 197.11 11.3935C197.187 11.5097 197.2 11.6258 197.148 11.7677C197.097 11.8968 197.019 12 196.903 12.0774V12.1032Z" fill="#333333"/>
<path d="M63.3161 58.2452C62.387 58.5161 61.7806 58.271 61.5096 57.5226C61.4064 57.1742 61.4322 56.8516 61.6128 56.5678C61.7806 56.271 62.0902 56.0774 62.5161 55.9613C66.6967 55.0323 69.9741 53.7161 72.3354 52.0258C74.6967 50.3355 76.3225 47.9742 77.2386 44.9678H62.4773C62.129 44.9678 61.8451 44.8516 61.6128 44.6065C61.3806 44.3613 61.2773 44.0903 61.2773 43.7678C61.2773 43.4452 61.3935 43.1742 61.6128 42.929C61.8451 42.6839 62.129 42.5678 62.4773 42.5678H77.7935C77.9225 41.871 78.0257 41.1355 78.0902 40.3484C78.1548 39.5613 78.2064 38.7613 78.2322 37.9226C76.4515 38.0774 74.658 38.2065 72.8515 38.2839C71.0451 38.3613 69.329 38.4129 67.6773 38.4387C66.8257 38.4387 66.3741 38.0387 66.3225 37.2387C66.2967 36.8903 66.4128 36.6065 66.6838 36.3742C66.9548 36.1419 67.2515 36.0387 67.5999 36.0387C69.1741 36.0387 70.9031 35.9871 72.7741 35.8968C74.6451 35.8065 76.5806 35.6645 78.5548 35.4968C80.529 35.329 82.4386 35.1226 84.2709 34.8774C86.116 34.6323 87.7806 34.3613 89.2773 34.0387H89.3548C88.9548 33.9613 88.6709 33.7161 88.516 33.3161C88.2967 32.7871 88.0386 32.0774 87.7161 31.2129C87.3935 30.3484 87.0838 29.6129 86.7999 29.0323H82.7999C82.3483 29.7807 81.8709 30.5032 81.3806 31.2129C80.8902 31.9226 80.3999 32.5419 79.9225 33.071C79.6773 33.3419 79.3935 33.5097 79.0451 33.5742C78.6967 33.6387 78.3741 33.5742 78.0902 33.3936C77.8193 33.1742 77.6773 32.9032 77.6515 32.5678C77.6257 32.2323 77.729 31.9355 77.9741 31.6645C78.6709 30.8645 79.3548 29.9355 80.0515 28.8645C80.7483 27.7936 81.3806 26.6968 81.9741 25.5613C82.5548 24.4258 83.0322 23.3936 83.3677 22.4645C83.4967 22.1161 83.7161 21.871 84.0257 21.7419C84.3354 21.6129 84.6451 21.6129 84.9677 21.7419C85.316 21.8452 85.5483 22.0645 85.6902 22.3871C85.8193 22.7097 85.8193 23.0194 85.6902 23.3032C85.5096 23.8323 85.2644 24.3871 84.9935 24.9678C84.7096 25.5355 84.4257 26.129 84.129 26.7484H96.0128C96.3354 26.7484 96.5935 26.8645 96.8128 27.0839C97.0322 27.3161 97.1354 27.5871 97.1354 27.9097C97.1354 28.2323 97.0322 28.5032 96.8128 28.7097C96.5935 28.929 96.3354 29.0323 96.0128 29.0323H89.458C89.729 29.5871 89.987 30.1807 90.258 30.7871C90.5289 31.4065 90.7354 31.9226 90.9031 32.3484C91.0322 32.6968 91.0451 33.0194 90.929 33.3032C90.8128 33.6 90.5806 33.8065 90.2322 33.9484C90.2064 33.9484 90.1806 33.9484 90.1548 33.9742C90.129 33.9871 90.1031 34 90.0773 34C90.5548 34.0774 90.8773 34.3742 91.0322 34.8774C91.1096 35.2258 91.058 35.5484 90.8773 35.8323C90.6838 36.129 90.4128 36.2968 90.0386 36.3484C88.658 36.6194 87.1741 36.8645 85.5999 37.0839C84.0257 37.3161 82.4128 37.5226 80.7612 37.7032C80.7354 38.5548 80.6838 39.3936 80.6193 40.2065C80.5548 41.0194 80.4515 41.8065 80.3225 42.542H96.3225C96.6709 42.542 96.9548 42.6581 97.1612 42.9032C97.3806 43.1484 97.4838 43.4194 97.4838 43.742C97.4838 44.0645 97.3806 44.3484 97.1612 44.5807C96.9419 44.8258 96.6709 44.942 96.3225 44.942H81.6386C83.3677 47.7936 85.5225 50.0903 88.1031 51.8194C90.6709 53.5484 93.5354 54.8516 96.6838 55.7032C97.058 55.8065 97.329 56.0258 97.5096 56.3484C97.6902 56.671 97.7032 57.0194 97.5741 57.3936C97.4451 57.7678 97.1741 58.0129 96.7999 58.1161C96.4128 58.2194 96.0257 58.2194 95.6257 58.1161C92.129 56.9936 89.0064 55.4581 86.2451 53.5097C83.4838 51.5613 81.2644 48.9678 79.587 45.7161C78.5419 49.0194 76.7225 51.6645 74.129 53.6387C71.5354 55.6129 67.9483 57.1484 63.3935 58.2452H63.3161ZM73.5225 34.2839C73.1741 34.3871 72.8515 34.3871 72.5419 34.2581C72.2322 34.1419 72.0128 33.9226 71.8838 33.6C71.7548 33.2258 71.5741 32.7613 71.3419 32.2194C71.1096 31.6774 70.8902 31.1097 70.658 30.5161C70.4257 29.9355 70.2193 29.4323 70.0386 29.0323H67.316C66.7612 29.8323 66.1806 30.6065 65.5741 31.3548C64.9806 32.1032 64.3612 32.8 63.7548 33.4323C63.5096 33.7032 63.2257 33.8581 62.8773 33.8968C62.529 33.9355 62.2064 33.8452 61.9225 33.6387C61.6515 33.3936 61.5096 33.1097 61.4967 32.7613C61.4838 32.4129 61.5999 32.129 61.8322 31.9226C62.6838 31.0968 63.5354 30.1032 64.3741 28.9678C65.2128 27.8194 65.987 26.6581 66.6967 25.4839C67.4064 24.3097 67.9483 23.2774 68.3225 22.3613C68.4515 22.0129 68.6838 21.7807 69.0064 21.6645C69.329 21.5484 69.6515 21.5484 69.9612 21.6903C70.3096 21.7936 70.5419 22.0129 70.658 22.3355C70.7741 22.6581 70.7741 22.9807 70.6322 23.2903C70.1548 24.3613 69.5354 25.5226 68.787 26.7742H78.387C78.6838 26.7742 78.9419 26.8903 79.1612 27.1097C79.3935 27.3419 79.4967 27.6129 79.4967 27.9355C79.4967 28.2581 79.3806 28.529 79.1612 28.7355C78.929 28.9549 78.6709 29.0581 78.387 29.0581H72.5935C72.8902 29.6387 73.187 30.2968 73.4967 30.9936C73.8064 31.7032 74.0386 32.2839 74.1935 32.7355C74.3225 33.0839 74.3225 33.3936 74.1935 33.6774C74.0644 33.9613 73.8322 34.1678 73.5096 34.2968L73.5225 34.2839Z" fill="#333333"/>
<path d="M112.723 58C112.426 57.7807 112.271 57.4968 112.245 57.1355C112.219 56.7742 112.31 56.4774 112.529 56.2323C113.032 55.7032 113.574 55.071 114.155 54.3355C114.723 53.6 115.29 52.8387 115.832 52.0387C116.374 51.2387 116.839 50.5032 117.213 49.8452C117.394 49.5484 117.652 49.3548 117.974 49.2645C118.297 49.1742 118.619 49.2 118.929 49.3677C119.226 49.5226 119.432 49.7677 119.548 50.0903C119.664 50.4129 119.639 50.7226 119.445 51.0065C118.8 52.1032 118.064 53.2645 117.2 54.4903C116.348 55.7161 115.497 56.8 114.645 57.729C114.374 58 114.077 58.1678 113.729 58.2323C113.381 58.2968 113.045 58.2323 112.735 58.0129L112.723 58ZM119.561 47.729C117.51 47.729 116.103 47.3678 115.355 46.6452C114.606 45.9226 114.232 44.6452 114.232 42.8V28.2839C114.232 26.4387 114.606 25.1613 115.355 24.4258C116.103 23.6903 117.497 23.329 119.561 23.329C121.626 23.329 123.019 23.6903 123.755 24.4258C124.503 25.1613 124.877 26.4516 124.877 28.2839V42.8C124.877 44.6452 124.503 45.9226 123.755 46.6452C123.006 47.3678 121.613 47.729 119.561 47.729ZM116.606 34.1677H122.529V28.4129C122.529 27.3678 122.335 26.671 121.974 26.2968C121.6 25.9226 120.8 25.7419 119.574 25.7419C118.348 25.7419 117.548 25.9226 117.174 26.2968C116.8 26.671 116.619 27.3807 116.619 28.4129V34.1677H116.606ZM119.561 45.3678C120.787 45.3678 121.587 45.1871 121.961 44.8129C122.335 44.4387 122.516 43.729 122.516 42.6968V36.4516H116.594V42.6968C116.594 43.7419 116.774 44.4387 117.148 44.8129C117.523 45.1871 118.323 45.3678 119.548 45.3678H119.561ZM126.516 58.2839C126.168 58.3355 125.858 58.2581 125.574 58.0645C125.29 57.8581 125.123 57.5871 125.071 57.2387C124.968 56.3871 124.813 55.3548 124.632 54.1548C124.439 52.9548 124.271 51.9484 124.116 51.1097C124.039 50.7613 124.077 50.4516 124.258 50.1936C124.426 49.9226 124.697 49.7548 125.032 49.6774C125.381 49.6258 125.69 49.6774 125.974 49.8323C126.258 49.9871 126.439 50.2581 126.516 50.6323C126.645 51.2258 126.787 51.8968 126.916 52.6581C127.045 53.4194 127.174 54.1677 127.29 54.9032C127.406 55.6387 127.497 56.2839 127.548 56.8387C127.626 57.6645 127.277 58.1419 126.503 58.2839H126.516ZM129.045 36C128.697 36.1807 128.335 36.2452 127.961 36.1548C127.587 36.0774 127.316 35.871 127.161 35.5613C126.981 35.2387 126.942 34.9161 127.058 34.6065C127.174 34.2839 127.419 34.0387 127.794 33.8452C129.123 33.1742 130.206 32.4774 131.032 31.7419C131.858 31.0065 132.542 30.1677 133.071 29.2258C133.6 28.2839 134.09 27.1613 134.516 25.8839H128.439C128.116 25.8839 127.845 25.7677 127.613 25.5484C127.381 25.329 127.277 25.0452 127.277 24.7226C127.277 24.4258 127.394 24.1678 127.613 23.9226C127.845 23.6774 128.116 23.5613 128.439 23.5613H140.761C142.813 23.5613 144.232 23.9742 145.006 24.7871C145.781 25.6 146.039 27.0065 145.768 29.0065C145.548 30.7355 145.2 32.0774 144.684 33.0323C144.181 33.9742 143.406 34.6323 142.361 34.9936C141.316 35.3548 139.884 35.5355 138.039 35.5355C137.664 35.5355 137.355 35.4194 137.123 35.2C136.877 34.9807 136.748 34.6839 136.723 34.3355C136.697 33.9871 136.8 33.6903 137.045 33.4581C137.29 33.2129 137.6 33.0839 138 33.0581C139.226 33.0323 140.181 32.929 140.864 32.7613C141.548 32.5936 142.039 32.2323 142.361 31.6774C142.684 31.1226 142.929 30.2839 143.123 29.1355C143.342 27.8065 143.239 26.929 142.839 26.5161C142.439 26.1032 141.6 25.8968 140.323 25.8968H137.084C136.632 27.4968 136.09 28.9032 135.458 30.0903C134.826 31.2903 134.013 32.3613 132.994 33.2903C131.974 34.2194 130.658 35.1355 129.032 36.0129L129.045 36ZM134.723 47.6903C132.619 47.6903 131.148 47.2903 130.323 46.4645C129.497 45.6516 129.084 44.271 129.084 42.3226C129.084 40.3742 129.497 38.9677 130.323 38.1677C131.148 37.3678 132.619 36.9677 134.723 36.9677H139.239C141.368 36.9677 142.839 37.3678 143.664 38.1677C144.49 38.9677 144.89 40.3613 144.89 42.3226C144.89 44.2839 144.477 45.6516 143.664 46.4645C142.852 47.2774 141.381 47.6903 139.239 47.6903H134.723ZM134.761 45.4065H139.2C140.452 45.4065 141.303 45.1871 141.742 44.7484C142.181 44.3097 142.4 43.4968 142.4 42.3226C142.4 41.1484 142.181 40.3097 141.742 39.8839C141.303 39.4581 140.452 39.2387 139.2 39.2387H134.761C133.51 39.2387 132.658 39.4581 132.219 39.8839C131.781 40.3097 131.561 41.1226 131.561 42.3226C131.561 43.5226 131.781 44.2968 132.219 44.7484C132.658 45.1871 133.51 45.4065 134.761 45.4065ZM135.445 58.129C135.097 58.2323 134.761 58.1936 134.452 58.0129C134.142 57.8323 133.935 57.5613 133.858 57.2129C133.703 56.3355 133.458 55.2645 133.161 54.0129C132.852 52.7613 132.568 51.6645 132.297 50.7355C132.194 50.3871 132.219 50.0774 132.4 49.8194C132.568 49.5484 132.826 49.3807 133.135 49.3032C133.484 49.2258 133.794 49.2516 134.077 49.4065C134.361 49.5484 134.555 49.7936 134.658 50.1419C134.981 51.071 135.29 52.1677 135.6 53.4065C135.91 54.6452 136.155 55.729 136.335 56.671C136.49 57.4452 136.206 57.9355 135.458 58.1548L135.445 58.129ZM146.761 57.729C146.439 57.9097 146.103 57.9871 145.742 57.9355C145.381 57.8839 145.11 57.6903 144.916 57.3807C144.542 56.7097 144.09 55.9871 143.574 55.1871C143.058 54.3871 142.503 53.5871 141.935 52.8129C141.368 52.0387 140.826 51.3419 140.31 50.7484C140.09 50.4774 140.013 50.1936 140.064 49.871C140.116 49.5484 140.258 49.3032 140.503 49.1097C140.8 48.8903 141.11 48.8129 141.445 48.8516C141.781 48.8903 142.052 49.0452 142.271 49.3161C142.8 49.9355 143.368 50.6323 143.974 51.4323C144.568 52.2323 145.161 53.0323 145.729 53.8323C146.297 54.6323 146.774 55.3548 147.148 55.9871C147.329 56.3355 147.394 56.671 147.303 56.9936C147.213 57.3161 147.032 57.5613 146.748 57.7548L146.761 57.729Z" fill="#333333"/>
<path d="M175.239 57.9097C173.135 57.9097 171.355 57.7806 169.922 57.5097C168.477 57.2387 167.329 56.7484 166.464 56.0258C165.6 55.3032 164.968 54.2839 164.581 52.9419C164.193 51.6129 164 49.8839 164 47.7806V33.4194C164 31.3161 164.193 29.6 164.581 28.2839C164.968 26.9677 165.6 25.9484 166.464 25.2258C167.329 24.5032 168.49 24 169.922 23.729C171.368 23.4452 173.135 23.3032 175.239 23.3032H185.884C187.987 23.3032 189.768 23.4452 191.2 23.729C192.645 24.0129 193.793 24.5032 194.658 25.2258C195.522 25.9484 196.155 26.9677 196.542 28.2839C196.929 29.6 197.122 31.3161 197.122 33.4194V47.7806C197.122 49.8839 196.929 51.6129 196.542 52.9419C196.155 54.271 195.522 55.3032 194.658 56.0258C193.793 56.7484 192.632 57.2387 191.2 57.5097C189.755 57.7806 187.987 57.9097 185.884 57.9097H175.239ZM175.239 55.6258H185.884C187.561 55.6258 188.968 55.5355 190.103 55.3419C191.239 55.1613 192.142 54.8 192.8 54.2581C193.471 53.729 193.948 52.9419 194.245 51.8968C194.542 50.8516 194.684 49.4968 194.684 47.8194V33.4194C194.684 31.7161 194.542 30.3484 194.245 29.3161C193.948 28.2839 193.471 27.5097 192.8 26.9806C192.129 26.4516 191.239 26.0903 190.103 25.8968C188.968 25.7161 187.561 25.6129 185.884 25.6129H175.239C173.561 25.6129 172.155 25.7032 171.019 25.8968C169.884 26.0903 168.981 26.4387 168.322 26.9806C167.651 27.5097 167.174 28.2968 166.877 29.3161C166.581 30.3484 166.439 31.7032 166.439 33.4194V47.8194C166.439 49.4968 166.581 50.8645 166.877 51.8968C167.174 52.9419 167.651 53.729 168.322 54.2581C168.993 54.7871 169.884 55.1484 171.019 55.3419C172.155 55.5355 173.561 55.6258 175.239 55.6258ZM168.877 36.1161C168.606 36.1161 168.387 36.0129 168.193 35.7935C168.013 35.5742 167.91 35.3419 167.91 35.071C167.91 34.8 168 34.5677 168.193 34.3742C168.374 34.1806 168.606 34.0774 168.877 34.0774H179.393V31.4323H171.793C171.522 31.4323 171.303 31.329 171.135 31.1355C170.968 30.929 170.877 30.6968 170.877 30.4387C170.877 30.1806 170.968 29.9355 171.135 29.7161C171.303 29.4968 171.522 29.3935 171.793 29.3935H179.393V27.5097C179.393 27.1871 179.51 26.929 179.729 26.7097C179.961 26.4903 180.219 26.3871 180.503 26.3871C180.826 26.3871 181.097 26.4903 181.329 26.7097C181.561 26.929 181.664 27.1871 181.664 27.5097V29.3935H189.058C189.355 29.3935 189.587 29.4968 189.755 29.7161C189.922 29.9355 190.013 30.1677 190.013 30.4387C190.013 30.7097 189.922 30.9419 189.755 31.1355C189.587 31.3419 189.342 31.4323 189.058 31.4323H181.664V34.0774H192.064C192.361 34.0774 192.593 34.1806 192.761 34.3742C192.929 34.5806 193.019 34.8129 193.019 35.071C193.019 35.329 192.929 35.5742 192.761 35.7935C192.593 36.0129 192.348 36.1161 192.064 36.1161H168.864H168.877ZM180.206 54.9161C179.91 54.9161 179.651 54.8129 179.432 54.6194C179.2 54.4129 179.097 54.1419 179.097 53.7935V46.6323C178.219 47.329 177.239 48.0258 176.155 48.7355C175.071 49.4452 173.974 50.1032 172.852 50.7226C171.729 51.3419 170.671 51.871 169.651 52.3226C169.381 52.4258 169.11 52.4387 168.813 52.3355C168.516 52.2452 168.31 52.0774 168.168 51.8323C168.064 51.5871 168.051 51.3419 168.129 51.071C168.206 50.8 168.387 50.6194 168.645 50.5161C169.574 50.1677 170.593 49.7161 171.703 49.1355C172.813 48.5548 173.91 47.9355 175.006 47.2516C176.103 46.5677 177.058 45.9097 177.884 45.2774H176.89C175.071 45.2774 173.832 45.0323 173.174 44.5419C172.503 44.0516 172.181 43.0968 172.181 41.6774C172.181 40.2581 172.516 39.2645 173.174 38.7742C173.845 38.2839 175.084 38.0387 176.89 38.0387H184.129C185.974 38.0387 187.213 38.2839 187.871 38.7742C188.529 39.2645 188.851 40.2323 188.851 41.6774C188.851 43.1226 188.529 44.0387 187.871 44.5419C187.213 45.0323 185.974 45.2774 184.129 45.2774H181.368V45.3161L181.522 45.3935C182.142 45.871 182.8 46.3355 183.497 46.7742C184.206 47.2129 184.929 47.6387 185.677 48.0387C186.232 47.5871 186.877 47.0581 187.6 46.4387C188.322 45.8323 188.852 45.329 189.2 44.9548C189.381 44.7355 189.626 44.6194 189.897 44.5935C190.181 44.5677 190.439 44.6323 190.671 44.8C190.89 44.929 191.019 45.1355 191.071 45.4194C191.122 45.7032 191.045 45.9484 190.826 46.1548C190.426 46.5548 189.897 47.0064 189.251 47.5097C188.593 48.0129 188 48.4774 187.471 48.9032C189.071 49.6258 190.671 50.2064 192.271 50.6581C192.568 50.7097 192.774 50.8645 192.89 51.1226C193.006 51.3806 193.019 51.6516 192.916 51.9484C192.813 52.2452 192.606 52.4516 192.31 52.5935C192.013 52.7355 191.716 52.7355 191.393 52.6323C189.613 52.0516 187.819 51.3032 186.039 50.3871C184.258 49.4839 182.697 48.5161 181.355 47.5097V53.7935C181.355 54.1419 181.239 54.4129 181.019 54.6194C180.787 54.8258 180.516 54.9161 180.193 54.9161H180.206ZM176.877 43.3548H184.116C185.045 43.3548 185.677 43.2645 186 43.0968C186.322 42.929 186.477 42.4516 186.477 41.6774C186.477 40.9032 186.322 40.3871 186 40.2194C185.677 40.0516 185.058 39.9613 184.116 39.9613H176.877C175.948 39.9613 175.316 40.0516 174.993 40.2194C174.671 40.3871 174.516 40.8774 174.516 41.6774C174.516 42.4774 174.671 42.929 174.993 43.0968C175.316 43.2645 175.935 43.3548 176.877 43.3548Z" fill="#333333"/>
</g>
<defs>
<clipPath id="clip0_14_762">
<rect width="200" height="58.3484" fill="white"/>
</clipPath>
</defs>
</svg>
