<?xml version="1.0" encoding="UTF-8"?>
<svg id="_レイヤー_2" data-name="レイヤー 2" xmlns="http://www.w3.org/2000/svg" width="57.58mm" height="54.28mm" viewBox="0 0 163.21 153.87">
  <defs>
    <style>
      .cls-1 {
        fill: #f4e227;
        stroke-width: 0px;
      }

      .cls-2 {
        fill: none;
        stroke: #f4e227;
        stroke-linecap: round;
        stroke-linejoin: round;
        stroke-width: 4.05px;
      }
    </style>
  </defs>
  <g id="_レイヤー_1-2" data-name="レイヤー 1">
    <g>
      <path class="cls-1" d="M29.68,76.55c.35.71.31-1.22.35-1.54.23-1.62.14-3.06-.87-4.4-1.16-1.55-2.84-1.97-4.56-1.17-1.41-1.02-3.34-1.2-4.84-.03-.01-.08-.02-.15-.03-.23-.79-3.96-6.44-2.49-6.54,1.15-.02,0-.05,0-.08,0-.03,1.62-.01,3.25.01,4.87-.36,1.86-.99,3.75-1.24,5.48-.2,1.35.55,2.21,1.48,2.45,0,.09,0,.18,0,.26.19,4.67,6.54,4.87,7.84.72.29-.92.65-1.82,1.06-2.71.85.66,1.8,1.2,2.83,1.58,3.95,1.44,5.97-3.57,4.58-6.44"/>
      <path class="cls-1" d="M143.51,74.02c-.83-2.32-3.62-4.35-6-3.36-2.18-2.76-7.17-1.33-7.58,2.27-2.29-1.85-5.78.18-5.49,3.46.16,1.71.98,5.09,2.76,6.29.89,1.72,1.84,3.41,2.79,5.13,1.99,3.61,7.07,2.27,7.55-1.63.03-.19.04-.4.06-.59.48-.05.96-.16,1.41-.34,2.01,1.7,5.69.43,5.66-2.45-.02-3.03-.11-5.88-1.16-8.77"/>
      <path class="cls-1" d="M105.74,72.65c-.07-1.52-.08-3.04-.06-4.55.02-.54.02-1.1-.14-1.64-.08-.3-.21-.56-.69-.81-.08-.04-.13-.05-.2-.09-.09-.1-.08-.21-.26-.32-.82-.46-3.93-1.06-5.11-.77-.53.13-.75.23-.87.31-.25.08-1,.45-1.08.51-.31.26-.44.59-.59.87-.63,1.34-.67,2.73-.9,4.1-.23,1.36-.42,2.72-.58,4.09-.14,1.23-.98,2.86,2.87,3.56,8.48,1.55,7.65-3.82,7.59-5.26"/>
      <path class="cls-1" d="M60.17,70.83c-.06-1.52-.08-3.04-.06-4.55.02-.54.03-1.1-.13-1.64-.08-.29-.22-.56-.69-.81-.09-.04-.14-.05-.2-.09-.09-.1-.08-.21-.26-.32-.84-.46-2.56-.6-3.73-.31-.53.13-.74.23-.87.32-.25.08-1.01.45-1.08.51-.31.26-.44.59-.58.87-.63,1.33-1.59,2.73-1.82,4.09-.22,1.36-.42,2.73-.58,4.09-.14,1.24-.05,2.86,3.79,3.57,8.49,1.55,6.27-4.28,6.22-5.72"/>
      <path class="cls-1" d="M115.39,96.54c-6.1,18.57-17.34,16.96-38.59,18.03-8.76.44-20.81-3.44-28.44-7.76-8.1-4.6-7.38-6.11-9.9-13.81-.21-.63-.65-2.01-2.1-1.77-1,.17-1.78.85-2.17,2-6.1,18.28,30.58,27.16,40.23,27.16,14.33,0,46,.08,46-22.54,0-2.88-4.31-5.29-5.03-1.32"/>
      <path class="cls-1" d="M156.02,75.54c-.04,16.04-6.28,31.57-16.33,43.96s-24.17,22.28-39.46,27.11c-7.74,2.45-15.28,3.54-23.42,3.32-.47-.01-.95-.03-1.42-.05-.24-.01-.47-.02-.71-.04-.1,0-.71-.04-.1,0-1.05-.07-2.1-.16-3.15-.28-2.01-.22-4.02-.52-6.01-.9-.51-.1-1.01-.2-1.52-.3-.07-.01-.63-.14-.15-.03-.22-.05-.45-.1-.67-.15-1-.23-1.99-.49-2.98-.76-1.9-.53-3.79-1.13-5.64-1.8-13.75-4.99-26.45-14.74-34.91-27.17-4.29-6.31-7.59-13.29-9.71-20.63-2.23-7.71-2.91-15.72-2.6-23.71.58-15.14,4.49-30.24,13.44-42.65,3.75-5.2,8.47-9.83,13.67-13.64.51-.38.89-.64,1.62-1.13s1.41-.93,2.12-1.37c1.4-.87,2.82-1.68,4.28-2.45s2.95-1.49,4.46-2.16c.17-.08.35-.15.52-.23.45-.2-.39.16.06-.03.4-.16.79-.33,1.19-.49.8-.32,1.6-.63,2.41-.92,1.54-.56,3.09-1.07,4.66-1.54.84-.25,1.68-.48,2.52-.71.38-.1.75-.2,1.13-.29.19-.05.38-.09.57-.14.71-.18-.5.11.28-.07,3.34-.74,6.7-1.33,10.09-1.73.85-.1,1.7-.19,2.55-.27.2-.02.4-.03.6-.05-.76.07-.21.02-.05,0,.5-.04,1.01-.07,1.51-.11,1.78-.11,3.56-.18,5.35-.2,2.01-.02,4.01.01,6.01.13-.67-.04.69.05.81.06.47.04.94.08,1.41.13,1.05.1,2.1.23,3.15.38,7.56,1.06,15.14,3.33,22.15,6.7s13.51,7.76,19.24,13.08c11.25,10.42,19.37,24.33,22.01,39.5.67,3.84,1,7.73,1.01,11.63,0,2.68,7.2,2.65,7.19-.06-.04-16.5-6.13-32.28-16.47-45.04S121.64,8.15,105.74,3.5c-15.47-4.53-32.29-4.5-47.94-.85-13.78,3.21-26.93,9.48-37.03,19.55C10.06,32.86,3.79,46.86,1.31,61.65-1.48,78.3,0,95.52,7.52,110.78c7.08,14.36,18.87,26.2,32.99,33.68,15.33,8.12,33.28,11.08,50.43,8.51,17.26-2.58,33.6-10.68,46.43-22.47s21.55-26.37,24.7-42.98c.75-3.97,1.13-8,1.14-12.04,0-2.68-7.18-2.65-7.19.06Z"/>
      <path class="cls-2" d="M70.49,82.46s-4.55,5.56,2.47,9.22c7.02,3.66,8.64,0,8.64,0"/>
      <path class="cls-2" d="M96.04,37.01s6.2-6.01,15.32-4.09c9.12,1.93,9.07,8.34,9.07,8.34"/>
      <path class="cls-2" d="M35.32,37.01s6.2-6.01,15.32-4.09c9.12,1.93,9.07,8.34,9.07,8.34"/>
    </g>
  </g>
</svg>