<?xml version="1.0" encoding="UTF-8"?>
<svg id="_レイヤー_2" data-name="レイヤー 2" xmlns="http://www.w3.org/2000/svg" width="48.33mm" height="41.66mm" viewBox="0 0 136.99 118.09">
  <defs>
    <style>
      .cls-1, .cls-2 {
        stroke-width: 3.18px;
      }

      .cls-1, .cls-2, .cls-3 {
        fill: none;
        stroke: #f4e227;
      }

      .cls-1, .cls-3 {
        stroke-linecap: round;
        stroke-linejoin: round;
      }

      .cls-2 {
        stroke-miterlimit: 10;
      }

      .cls-3 {
        stroke-width: 3.56px;
      }

      .cls-4 {
        fill: #f4e227;
        stroke-width: 0px;
      }
    </style>
  </defs>
  <g id="_レイヤー_1-2" data-name="レイヤー 1">
    <g>
      <path class="cls-4" d="M31.49,59.15c.29.37.01-.75,0-.95-.08-.97-.33-1.81-1.1-2.45-.89-.75-1.93-.77-2.83-.07-.96-.41-2.11-.25-2.84.63-.02-.04-.03-.08-.05-.13-.99-2.21-4.1-.59-3.66,1.55-.01,0-.03,0-.05,0,.2.95.43,1.9.66,2.85.04,1.14-.08,2.33.01,3.37.07.82.62,1.22,1.2,1.23.02.05.03.1.04.15.74,2.71,4.48,1.97,4.68-.63.05-.58.14-1.16.26-1.73.58.27,1.21.46,1.87.54,2.51.32,3.01-2.89,1.82-4.38"/>
      <path class="cls-4" d="M110.38,57.83c-.57-1.37-2.31-2.49-3.7-1.83-1.39-1.59-4.33-.58-4.47,1.6-1.43-1.04-3.46.29-3.18,2.25.15,1.02.75,3.02,1.85,3.68.59,1,1.21,1.99,1.83,2.98,1.31,2.1,4.31,1.15,4.47-1.21,0-.12,0-.24.02-.36.28-.04.57-.13.84-.25,1.26.96,3.42.08,3.32-1.64-.1-1.81-.26-3.52-.97-5.22"/>
      <path class="cls-4" d="M83.18,54.9c-.14-1.47-.25-2.94-.33-4.41-.03-.53-.06-1.06-.21-1.59-.08-.28-.19-.54-.58-.76-.07-.04-.11-.05-.16-.08-.07-.1-.07-.21-.22-.3-.66-.42-1.99-.5-2.88-.18-.4.14-.55.25-.64.33-.18.09-.74.47-.79.53-.22.26-.3.59-.39.86-.4,1.31-.34,2.67-.43,3.99-.09,1.33-.15,2.66-.19,3.99-.03,1.2-.57,2.8,2.42,3.36,6.59,1.23,4.53-4.35,4.4-5.74"/>
      <path class="cls-4" d="M52.08,54.9c-.14-1.47-.26-2.94-.33-4.41-.02-.53-.05-1.06-.2-1.59-.08-.28-.2-.53-.58-.77-.07-.04-.11-.05-.16-.08-.07-.1-.07-.21-.22-.3-.67-.42-2-.5-2.88-.18-.4.14-.56.25-.64.33-.18.09-.74.47-.79.53-.22.26-.3.59-.4.86-.39,1.31-.35,2.67-.43,3.99-.08,1.33-.15,2.65-.19,3.99-.03,1.2-.56,2.8,2.42,3.36,6.6,1.23,4.53-4.35,4.4-5.74"/>
      <path class="cls-4" d="M94.04,69.71c-3.67,15.62-14.77,20.77-30.37,21.1-6.72.14-13.7-1.19-19.72-4.2-6.39-3.19-6.4-7.54-8.63-13.33-.19-.47-.97-.6-1.29-.23-11.83,13.76,19.53,22.58,27.24,23.08,14.51.93,40.96-6.76,37.2-26.21-.42-2.17-3.91-2.47-4.44-.21"/>
      <path class="cls-2" d="M126.75,60.94c0,28.65-30.27,53.92-62.58,53.92-32.31,0-58.49-23.23-58.49-51.88,0-37.48,28.23-53.92,60.54-53.92,32.31,0,60.54,23.22,60.54,51.88Z"/>
      <path class="cls-1" d="M1.59,61.91c0-30.15,30.27-54.59,62.58-54.59,32.31,0,58.49,24.45,58.49,54.59,0,30.15-26.18,54.59-58.49,54.59-32.3,0-62.58-14.18-62.58-54.59Z"/>
      <path class="cls-3" d="M50.11,10.63s15.09,28.85,44.53,25.24c7.07-.86,12.89-3.35,17.64-6.62,4.84-3.34,8.58-7.5,11.44-11.59"/>
      <path class="cls-4" d="M126.97,4.32c2.87-4.04,9.41-4.32,9.41-4.32,0,0,1.89,6.26-.98,10.31-2.87,4.04-9.41,4.32-9.41,4.32,0,0-1.89-6.27.99-10.31Z"/>
    </g>
  </g>
</svg>