<?xml version="1.0" encoding="UTF-8"?>
<svg id="_レイヤー_2" data-name="レイヤー 2" xmlns="http://www.w3.org/2000/svg" width="47.27mm" height="41.56mm" viewBox="0 0 134 117.82">
  <defs>
    <style>
      .cls-1 {
        fill: #ee86a5;
        stroke-miterlimit: 10;
        stroke-width: 1.86px;
      }

      .cls-1, .cls-2 {
        stroke: #a8cd31;
      }

      .cls-3 {
        fill: #f4e227;
        stroke-width: 0px;
      }

      .cls-2 {
        fill: none;
        stroke-linecap: round;
        stroke-linejoin: round;
        stroke-width: 2.48px;
      }
    </style>
  </defs>
  <g id="_レイヤー_1-2" data-name="レイヤー 1">
    <g>
      <g>
        <path class="cls-3" d="M31.42,59.31c.26.54.23-.93.27-1.18.18-1.24.11-2.34-.67-3.36-.88-1.18-2.17-1.51-3.49-.89-1.08-.78-2.55-.91-3.7-.02,0-.06-.02-.11-.03-.17-.61-3.03-4.93-1.9-5,.88-.02,0-.04,0-.06,0-.02,1.24-.01,2.48,0,3.73-.28,1.43-.76,2.87-.95,4.19-.15,1.04.42,1.69,1.13,1.87,0,.07,0,.14,0,.2.15,3.57,5,3.72,5.99.55.22-.7.5-1.39.81-2.07.65.5,1.38.92,2.17,1.21,3.02,1.11,4.57-2.73,3.51-4.92"/>
        <path class="cls-3" d="M118.44,57.38c-.64-1.78-2.77-3.32-4.59-2.57-1.67-2.11-5.48-1.02-5.79,1.74-1.75-1.41-4.42.14-4.2,2.65.12,1.31.75,3.89,2.11,4.81.68,1.31,1.41,2.61,2.13,3.92,1.53,2.76,5.41,1.74,5.77-1.25.02-.15.03-.3.04-.45.36-.04.73-.12,1.08-.26,1.54,1.3,4.35.33,4.33-1.87-.01-2.31-.08-4.5-.89-6.71"/>
        <path class="cls-3" d="M89.57,56.33c-.05-1.16-.06-2.32-.05-3.48.01-.42.02-.84-.11-1.26-.06-.23-.16-.43-.53-.62-.06-.03-.1-.04-.15-.07-.07-.08-.06-.16-.2-.24-.63-.35-3.01-.81-3.91-.59-.4.1-.57.18-.66.24-.19.07-.77.35-.82.39-.23.2-.33.45-.45.66-.48,1.02-.52,2.09-.69,3.13-.17,1.04-.32,2.08-.44,3.13-.11.94-.75,2.19,2.19,2.73,6.48,1.19,5.85-2.92,5.81-4.02"/>
        <path class="cls-3" d="M54.72,54.94c-.04-1.16-.06-2.32-.04-3.48.01-.42.02-.84-.1-1.26-.06-.22-.17-.43-.53-.62-.07-.03-.1-.04-.15-.07-.07-.08-.06-.16-.2-.24-.64-.35-1.96-.46-2.85-.24-.41.1-.57.18-.66.24-.19.06-.77.35-.83.39-.23.2-.34.45-.45.66-.48,1.02-1.22,2.09-1.39,3.13-.17,1.04-.32,2.08-.44,3.13-.11.94-.04,2.19,2.9,2.73,6.49,1.19,4.8-3.28,4.75-4.37"/>
        <path class="cls-3" d="M96.95,74.6c-4.67,14.19-13.26,12.96-29.51,13.78-6.69.34-15.91-2.62-21.75-5.93-6.19-3.51-5.65-4.67-7.57-10.56-.16-.48-.5-1.54-1.61-1.35-.77.13-1.36.65-1.66,1.53-4.66,13.98,23.38,20.77,30.76,20.77,10.96,0,35.17.06,35.17-17.23,0-2.2-3.29-4.04-3.84-1.01"/>
        <path class="cls-2" d="M87.38,5.08c25.05,7.34,43.46,27.95,45.23,52.12,1.12,15.28-4.44,29.86-15.65,41.07-11.19,11.17-26.68,17.65-43.61,18.23-6.31.22-12.44-.06-18.19-.83C22.71,111.34,3.61,92.18,1.37,61.72c-1.11-15.09,5.23-29.72,17.87-41.2,5.63-5.12,11.11-8.74,18.39-11.55,5.8-2.24,9.12-3.02,11.02-3.17"/>
        <path class="cls-2" d="M93.15,7.18c22.64,9.23,37.42,30.81,36.19,54.49-.79,14.97-7.76,28.71-19.64,38.68-11.85,9.95-27.17,14.97-43.13,14.13-5.95-.31-11.67-1.09-16.97-2.31-29.94-6.91-45.57-27.15-44-56.99.77-14.78,8.49-28.5,21.73-38.62,5.9-4.52,11.48-7.58,18.65-9.72,2.94-.88,5.22-1.42,6.98-1.75,6.14-1.15,6.05.41,6.05.41"/>
        <path class="cls-1" d="M48.46.93c3.38.32,5.74,2.2,7.45,4.59,1.52-1.08,3.32-1.8,5.48-1.87,4.78-.15,7.62,2.89,8.35,4.07,1.55-2,3.85-3.8,6.89-3.9,1.66-.05,4.23.33,5.63,1.2,2.79,1.76,4.12,4.63,4.81,7.19,1.26,4.68.87,9.97-.84,12.75-.13.21-.46.33-.79.34-.56.01-1.05-.29-1.18-.75-.05-.17-.04-.32.02-.46,1.57-2.46,1.89-7.47.71-11.83-.85-3.16-3.97-7.14-8.07-7.02-3.27.1-5.47,3.47-5.96,4.22.76,1.11,1.73,2.75,2.21,4.54,1.5,5.59.74,11.79-3.4,11.91-.74.02-1.44-.17-2.03-.47-.9-.57-1.53-1.55-1.94-3.06-.96-3.59.16-9.26,2.86-13.17-.71-1.25-1.67-2.25-2.86-3.03-1.16-.71-2.64-1.13-4.16-1.08-1.84.06-3.45.81-4.75,2.02,1.04,1.78,1.86,4.16,2.41,6.2,1.79,6.64.54,13.03-4.2,13.17-2.35.07-4.59-1.38-5.42-4.44-1.15-4.29.54-11.61,4.82-15.36-1.63-2.61-3.63-4-6.07-4.28-.48-.06-.97-.32-1.08-.71-.12-.46.3-.79.85-.81h.23ZM55.45,8.3c-3.18,3.86-4.78,9.83-3.73,13.73.12.46.89,3.13,3.05,3.06,2.99-.09,4.1-5.62,2.47-11.67-.53-1.97-1.16-3.62-1.8-5.12ZM69.77,11.1c-1.92,3.89-2.71,8.38-1.93,11.26.13.49.69,2.21,1.61,2.18,1.93-.06,3.17-4.49,1.76-10.09-.31-1.16-.89-2.21-1.43-3.36Z"/>
      </g>
      <g>
        <path class="cls-3" d="M30.46,59.83c.31.54,1.36,2.27,2.26,1.8.36-.19.41-.73.43-1.09.09-1.21.21-2.41-.04-3.6-.63-2.92-3.41-6.7-6.78-5.25l1.02.28c-1.44-.98-3.21-1.39-4.73-.3l2.71,3.39c-.33-2.25-2.02-5.64-4.77-5.41-1.76.14-3.18,1.51-3.28,3.3l.62-.62h-.06c-.61-.05-.62.66-.62,1.06,0,.62-.01,1.24-.01,1.86,0,.51.09,1.09.02,1.6-.14,1.02-.54,2.04-.76,3.05-.27,1.25-.27,2.42.25,3.62s1.43,2.6,2.76,3l-2.06-3.35c.05,2.75,2.15,6.38,5.22,6.46.93.02,1.92-.28,2.61-.92,1.07-.98,1.31-2.4,1.89-3.69l-1.24-.06c1.81,1.36,4.4,2.66,6.23.67,1.48-1.62,1.37-4.33.51-6.21-.36-.79-1.09-2.32-2.13-2.34s-.55,1.71-.34,2.17c.27.59-.07-.32.04.08.12.43,0-.41,0,.04,0,.1.01.19.01.29,0-.2,0-.21-.01,0-.02.15-.03.29-.06.44-.06.3-.08.4-.27.76-.11.22-.33.57-.45.69-1.15,1.22-2.73.44-3.87-.42-.3-.22-.99-.6-1.24-.06-.74,1.65-.93,3.6-2.92,4.03.1-.02-.25.03-.32.03-.16,0-.33,0-.49-.01-.09,0-.51-.1-.25-.02-.16-.05-.3-.13-.45-.18-.24-.08.02.05.07.05-.04,0-.17-.12-.2-.15l.21.2c-.12-.14-.12-.12.02.05.32.46-.15-.34.14.21.08.11.14.23.19.35.09.2.11.24.06.12-.11-.27.14.47.06.17-.05-.21-.04.31.02.08.02-.11-.02-.34-.02-.44-.02-1.02-.99-3.02-2.06-3.35l-.15-.05c-.16-.08-.19-.09-.09-.02.04,0,1.22,1.86,1.15,1.96.07-.1.12-.6.17-.8.17-.79.38-1.57.57-2.35.4-1.67.2-3.47.22-5.18l-.62,1.07h.06c.34.03.6-.3.62-.62.03-.52.08-.75.49-1.25.09-.1.25-.24.45-.38s.44-.24.68-.33.23-.09.55-.1c.12,0,.24,0,.36.01.07,0,.41.09.11,0,.11.03.21.09.32.13l-.18-.12c.13.1.13.09-.01-.03-.13-.13-.14-.14-.02-.01-.13-.13-.24-.28-.34-.44-.2-.31-.36-.64-.41-1.01.13.92.52,1.78,1.1,2.51.26.32,1.08,1.25,1.6.88.76-.55,1.64-.75,2.52-.34.26.12.52.41.89.42.25,0,.46-.14.69-.21.36-.11.78-.13,1.13-.02.14.04.33.08.36.19-.08-.06-.14-.14-.19-.23.19.29.19.25-.02-.1-.1-.14-.17-.29-.2-.46.06.24.07.27.03.1.03.19.03.36.02.53-.02.32-.07.64-.08.96,0,.14,0,.29-.02.43,0,.07-.01.15-.02.22-.07.31.09.19.5-.38l1.12.7-.04-.04.73,1.04-.04-.08c-.32-.55-1.29-2.14-2.15-1.68s-.05,2.22.24,2.72h0Z"/>
        <path class="cls-3" d="M119.68,57.47c-1.02-2.62-3.82-6.02-7.02-4.86l1.41.64c-1.17-1.4-2.87-2.1-4.66-1.64-1.56.4-2.64,1.72-2.87,3.3l1.34-.28c-1.05-.79-2.33-1.15-3.57-.58-1.16.52-1.88,1.77-1.98,3.01-.11,1.49.3,3.03.8,4.42.59,1.65,1.54,3.4,2.99,4.45l-1.12-1.4c.84,1.61,1.64,3.33,2.69,4.81.84,1.18,1.99,2.2,3.47,2.43.95.15,2.03-.15,2.77-.77.98-.81,1.38-1.89,1.5-3.13l-.62.62c.47-.06.93-.16,1.38-.32l-1.02-.28c1.63,1.28,4.43,1.29,5.38-.87.56-1.27.32-2.94.23-4.29-.12-1.8-.5-3.55-1.09-5.25-.27-.78-1.15-2.35-2.13-2.34-1.04,0-.51,1.69-.34,2.17.34.99.49,2.21.55,3.33.05.9.3,2.13-.26,2.85-.4.53-1.12.82-1.78.81-.33,0-.69-.11-.8-.17.09.06.06.04-.09-.08-.21-.18-.45-.3-.73-.34-.34-.02-.74.21-1.08.26s-.58.23-.62.62c-.14,1.42-1.05,2.73-2.65,2.69-.4,0-.56-.05-.86-.19-.18-.1-.19-.1-.04-.01-.18-.15-.18-.13,0,.03-.17-.19-.16-.17.04.06l.15.24c-.2,0-.88-1.59-1.01-1.83-.36-.65-.7-1.31-1.05-1.96-.3-.55-.66-1.16-1.19-1.53-.18-.14-.18-.13,0,.03-.15-.16-.16-.18-.05-.04.11.14.1.12-.03-.06.18.29.2.31.06.06.35.44,0-.04-.08-.23-.06-.16-.05-.13.02.1-.04-.13-.08-.25-.11-.38-.06-.21-.11-.43-.15-.65-.03-.15-.03-.12.01.09-.02-.11-.03-.21-.05-.32-.01-.12-.04-.44-.04-.47.03-.62.52-1.3,1.11-1.65.31-.18.61-.28.96-.29.09,0,.4.02.39.01.11.04.22.08.32.13-.12-.1-.1-.08.08.05.5.38,1.23.52,1.34-.28.14-1.01.93-1.74,1.91-2.08.44-.15.92-.18,1.38-.1.23.04.32.07.57.19.17.08-.17-.09.1.06-.27-.16-.06-.07.09.11.32.38.88.84,1.41.64.6-.22,1.24-.16,1.81.14.16.09.46.33.49.35-.02-.02.13.3,0,.01-.05-.11-.33-.72-.14-.22.3.78,1.13,2.35,2.13,2.34s.53-1.69.34-2.17h0Z"/>
        <path class="cls-3" d="M91.09,57.52c-.03-.65-.05-1.29-.05-1.94,0-.32,0-.64,0-.97,0,.01,0-.54,0-.31,0-.24.01-.48,0-.72-.05-1.92-1.1-3.97-2.85-4.85l1.15,1.08c.08.11.5.81.07.12-.17-.27-.35-.52-.56-.76-.25-.28-.57-.53-.9-.7-.18-.09-.37-.15-.57-.21-.61-.18-1.24-.33-1.87-.42-1.08-.15-2-.08-3,.36-.55.25-.93.55-1.2,1.11-.38.77-.56,1.64-.68,2.48-.21,1.48-.38,2.98-.63,4.46s.13,2.88,1,4.14c.99,1.44,2.39,2.01,4.06,2.27,1.83.28,4.14.29,5.35-1.37.79-1.09.72-2.52.66-3.79-.05-1.09-.79-2.47-1.68-3.11-.28-.2-.67-.47-1.02-.28s-.34.69-.33,1.01c0,.13.02.27.02.4.01.23-.07.89.02.18-.03.2-.02.41-.05.61-.02.12-.05.23-.07.35-.05.29,0-.14.04-.11,0,0-.06.16-.06.17-.1.21-.19.42-.33.61-.04.05-.09.1-.12.15-.11.2.21-.16.02-.02-.11.09-.22.19-.34.27-.25.17-.53.29-.81.38-.09.03-.18.05-.27.08-.31.08.24-.03-.1.02-.22.03-.45.06-.67.07-.5.02-1,0-1.5-.06-.33-.04-.65-.09-.97-.15-.36-.07-.48-.09-.74-.19-.12-.04-.23-.1-.34-.15-.35-.13.29.24.03.03-.28-.22.34.34.17.16.18.19.71,1.07.79,1.31l.14.45c-.05-.19-.03-.08.05.33,0-.07-.01-.13-.01-.2.01.64,0,.16.03-.01.16-1.1.29-2.21.47-3.31.1-.65.18-1.31.29-1.96.09-.52.22-1.27.6-1.66.16-.17.65-.34.91-.45.09-.04.18-.07.27-.1.07-.02.48-.07.16-.05.25-.02.49-.03.74-.02.56.03,1.12.11,1.67.23.08.02.16.04.25.05.07.02.55.17.2.05.09.03.18.06.27.09.18.07.32.24-.01-.04l-1.12-1.4c.42.69.93,1.61,1.75,1.87l-1.44-2.2-.02-.17c0,.12.02.24.03.36,0,.07,0,.27,0,.09,0,.25,0,.49-.01.74-.01,1.06,0,2.13.05,3.19s.79,2.47,1.68,3.11c.28.2.67.47,1.02.28s.34-.69.33-1.01h0Z"/>
        <path class="cls-3" d="M56.24,56.13c-.02-.68-.04-1.37-.05-2.05,0-.79.04-1.26,0-1.97-.08-1.89-1.13-3.9-2.85-4.76l1.15,1.08c.08.11.5.81.07.12-.16-.26-.34-.53-.56-.76-.25-.27-.54-.51-.87-.68s-.72-.27-1.08-.35c-.65-.14-1.33-.14-1.99-.02-1.01.18-2.07.59-2.55,1.55-.34.67-.72,1.32-1.03,2.01-.34.74-.5,1.5-.62,2.3-.18,1.16-.49,2.45-.32,3.63.26,1.73,1.24,3.48,2.74,4.43,1.17.74,2.63,1.02,4,1.1,1.54.09,3.36-.23,3.92-1.88.26-.77.29-1.58.21-2.39-.05-.45-.17-.9-.19-1.36-.06-1.1-.78-2.47-1.68-3.11-.28-.2-.67-.47-1.02-.28s-.34.69-.33,1.01.09.63.14.94c.03.21.06.42.08.63,0,.1,0,.2.02.3.02.34.05-.49,0-.02,0,.06-.06.61-.1.6-.06,0,.16-.38.03-.11-.03.06-.05.11-.07.17-.06.11-.13.21-.19.32-.02.03-.06.06-.08.1-.1.18.21-.14.03-.03-.1.06-.18.15-.28.21-.27.17-.56.27-.86.35-.18.04.28-.03-.04,0-.1.01-.21.03-.31.04-.19.02-.39.02-.58.02-.53,0-1.05-.06-1.57-.14-.31-.05-.63-.11-.94-.19-.08-.02-.35-.11-.55-.2-.07-.03-.15-.07-.22-.1l-.1-.05c-.16-.1-.13-.07.11.07-.07.01-.16-.16-.22-.18l.26.24c-.15-.17-.08-.08.23.28l.27.44c-.12-.22-.06-.08.19.41-.11-.29.14.44.12.38-.09-.3.04.57.04.26,0-.06,0-.14-.01-.2-.03-.19-.05.5,0,.07.04-.3.07-.6.11-.91.09-.65.18-1.31.28-1.96s.28-1.12.62-1.78c.29-.56.55-1.22.91-1.74.17-.25.57-.36.89-.5.44-.2.77-.28,1.26-.29.31,0,.63,0,.94.05.14.02.29.04.43.08-.13-.04-.12-.03.03.02.17.08.15.06-.07-.06l-1.12-1.4c.45.74.92,1.53,1.76,1.87-.9-.64-1.39-1.43-1.46-2.37.02.12.03.24.03.36,0,.21,0,.24,0,.09,0,.22,0,.44-.01.65-.01,1.09,0,2.19.05,3.28s.8,2.48,1.68,3.11c.28.2.67.47,1.02.28s.34-.69.33-1.01h0Z"/>
        <path class="cls-3" d="M95.55,72.62c-.97,2.91-2.26,5.84-4.37,8.11-1.69,1.81-3.92,3.01-6.27,3.72-2.82.86-5.81,1.08-8.73,1.25-3.7.22-7.49.52-11.19.45-4.35-.09-8.69-1.18-12.76-2.66-3.55-1.29-7.38-2.89-10.3-5.34-.27-.23-.21-.2-.45-.43-.4-.38.06.09-.27-.33-.23-.29.24.37.03.07-.07-.11-.13-.23-.19-.35-.17-.33.17.41.03.06-.07-.16-.13-.32-.2-.48-.03-.07-.3-.85-.18-.49-.11-.32-.2-.65-.3-.97-.27-.89-.54-1.78-.82-2.67-.52-1.6-1.61-4.2-3.62-4.29-1.86-.08-2.57,1.77-2.89,3.27-1.2,5.55,2.32,10.92,6.49,14.25,4.4,3.52,9.87,5.66,15.23,7.2,4.21,1.2,8.51,2.12,12.89,2.12,5.42,0,10.86-.16,16.2-1.13s10.93-2.67,14.74-6.76c1.84-1.97,2.99-4.44,3.46-7.09.3-1.67.46-3.52-.14-5.13s-1.84-3.47-3.59-4.06c-1.63-.56-2.55.56-2.89,2.05-.24,1.06.6,2.46,1.29,3.19.5.54,1.49,1.16,1.73.08.11-.49.36-.96.92-.97.11,0,.55.17.54.18-.29.3-.43-1.89-.65-1.14-.16.55-.05,1.3-.13,1.89-.09.68-.22,1.36-.41,2.02-.64,2.22-1.99,4.26-3.71,5.78-3.82,3.37-9.06,4.85-13.98,5.64-8.76,1.4-17.9,1.54-26.51-.74-4.88-1.29-9.92-3.12-14.08-6.03-.92-.64-1.93-1.44-2.54-2.07-.18-.18-.35-.37-.52-.56-.08-.1-.51-.61-.24-.27-.17-.22-.33-.45-.49-.68-.03-.04-.22-.33-.05-.06.19.31-.1-.18-.14-.25-.07-.12-.13-.24-.19-.36.04.08.2.49.03.06-.04-.1-.26-.69-.19-.46-.07-.2-.17-.63-.21-1.04-.1-.95,0-2.03.33-3.03.26-.78.57-.93,1.2-1.35h.15c.67-.04.4-.48-.81-1.34,0,0,.1.35.04.1.1.42.26.83.39,1.24.41,1.34.77,2.71,1.3,4,1.13,2.75,3,4.82,5.48,6.43,6.45,4.18,14.54,7.08,22.25,7.41,3.53.15,7.14-.19,10.67-.37,2.82-.14,5.65-.35,8.42-.93,5.02-1.05,8.89-3.85,11.27-8.44.72-1.39,1.28-2.84,1.78-4.32.35-1.04-.2-2.22-.8-3.07-.2-.29-1.68-1.89-2.01-.9h0Z"/>
        <path class="cls-3" d="M87.93,7.24c20.25,5.99,38.09,21.5,42.37,42.8,2.31,11.48.3,23.61-5.35,33.84-5.88,10.65-15.35,19.01-26.32,24.16-11.94,5.61-25,6.92-38.04,6.01-10.74-.75-21.53-3.11-31.11-8.15-7.71-4.05-14.38-9.93-18.93-17.3-2.09-3.39-3.89-7.41-5.14-11.56-1.41-4.72-2.24-9.6-2.56-14.52-.77-11.9,3.55-23.46,10.91-32.72,3.93-4.94,8.69-9.33,13.92-12.87s10.84-5.94,16.74-7.74c1.67-.51,3.37-.99,5.11-1.14s-.31-4.65-1.79-4.51c-1.94.17-3.85.69-5.7,1.26-3.23.99-6.43,2.19-9.49,3.62-5.86,2.75-11.1,6.6-15.77,11.07C7.72,28.17,1.22,39.53-.04,52.15c-.57,5.72-.02,11.5,1.05,17.13.93,4.94,2.42,9.81,4.51,14.38,4.08,8.9,10.26,16.7,18.27,22.39,8.5,6.03,18.48,9.56,28.69,11.33,13.41,2.32,27.78,2.28,40.83-1.91,12.02-3.86,22.86-11.28,30.44-21.42s11.33-22.94,10.39-35.67c-1.71-23.2-18.02-43.24-38.94-52.43-2.72-1.19-5.51-2.2-8.35-3.04-1.98-.59-.27,3.92,1.09,4.32h0Z"/>
        <path class="cls-3" d="M93.7,9.34c9.75,4.01,18.49,10.47,24.7,19.03s9.22,17.91,9.48,27.99c.3,11.42-3.42,22.72-10.13,31.93-7.08,9.71-17.33,16.94-28.68,20.79-12.33,4.17-25.55,3.9-38.19,1.31-9.58-1.96-19.05-5.54-26.82-11.59-3.24-2.52-6.17-5.5-8.53-8.75s-4.24-6.89-5.65-10.94c-3.1-8.87-3.76-19.24-2.02-28.48,2.1-11.17,8.44-21.19,16.87-28.71,4.59-4.1,9.77-7.68,15.37-10.23,2.86-1.3,5.83-2.3,8.85-3.14,2.59-.72,5.27-1.44,7.96-1.59.45-.02.9-.03,1.35,0,.14.01.86.11.64.09.48.05.11.07-.26-.3-.76-.75-1.16-1.87-1.13-2.87-.03,1.17.49,2.34,1.29,3.19.37.4,1.7,1.26,1.73.08.04-1.63-.96-3.53-2.45-4.29-1.75-.89-4.2-.35-6.01-.02-6.23,1.16-12.41,3.19-17.96,6.26-10.85,6-20.37,15.38-25.58,26.71-4.7,10.2-5.51,21.81-3.72,32.82,1.62,9.94,5.65,19.32,12.22,27s15.11,12.87,24.39,16.17c5.97,2.12,12.2,3.51,18.49,4.29,6.82.85,13.7,1.07,20.51.05,12.92-1.93,25.09-7.83,34.33-17.1,8.67-8.7,14.38-20,15.82-32.23,2.78-23.46-10.19-46.39-30.35-58.06-2.44-1.41-4.98-2.65-7.59-3.72-1.02-.42-1.04.82-.88,1.5.24.98.96,2.41,1.97,2.82h0Z"/>
        <g>
          <path class="cls-3" d="M49.36,3.19c2.45.28,4.5,1.42,5.96,3.42.26.36,1.18,1.53,1.79,1.12,2.41-1.65,5.38-2.3,8.22-1.45,1.03.31,2,.82,2.83,1.49.32.26.37.33.64.6.07.07.48.59.09.1.09.11.17.23.24.35.34.53,1.39,1.68,2.01.9,1.74-2.18,4.14-3.7,7-3.62,2.47.07,5.01.68,6.43,2.89,1.34,2.09,1.67,4.89,1.72,7.31.03,1.41-.12,2.83-.45,4.2-.14.59-.33,1.16-.59,1.72-.07.15-.26.66-.4.76-.4.28-.77-.26-.25.31l1.01,1.64c0,1.01.12,1.24.34.69.09-.18.17-.36.25-.55.13-.31.23-.62.33-.94.25-.79.42-1.59.53-2.41.23-1.75.21-3.56,0-5.31-.43-3.63-1.66-7.02-4.09-9.8-2.01-2.3-5.06-4.18-8.22-3.4-2.25.56-3.97,2.43-5.19,4.31-.55.84.36,2.41.8,3.07,1.5,2.23,2.09,4.91,2.01,7.59-.06,1.96-.56,4.75-2.76,5.41-.71.21-1.97.24-2.35-.4-.5-.85-.3-2.46-.22-3.38.27-3.06,1.31-6.02,3.03-8.57.43-.63-.12-1.95-.45-2.5-1.5-2.52-3.56-4.75-6.46-5.54-2.68-.73-5.38-.07-7.45,1.77-.73.65-.14,2.04.24,2.72,1.85,3.28,2.98,7.55,2.54,11.31-.33,2.83-1.89,5.68-5.14,5.25-1.12-.15-2.02-.63-2.29-1.73-.32-1.34-.22-2.8-.02-4.15.51-3.47,2.03-7.03,4.67-9.41.9-.81-.11-2.54-.59-3.28-.97-1.5-2.16-2.93-3.64-3.95-.62-.42-1.27-.8-1.98-1.05-.56-.2-1.73-.21-2.15-.57l1.12,1.4-.14-.27.56,1.71v-.26c-.05.26-.09.53-.13.79.12-.27.32-.27.59-.28,1.61-.05-.27-4.56-1.79-4.51-3.45.1-.92,4.96.92,5.79,1.03.46,2.14.41,3.15.99s1.67,1.42,2.28,2.38l-.59-3.28c-5.09,4.59-7.29,13.42-3.98,19.62,1.59,2.99,4.89,5.6,8.42,4.3,2.96-1.09,3.76-4.82,3.83-7.6.14-4.84-1.38-10.02-3.74-14.22l.24,2.72c2.56-2.28,7.55-3.06,9.62.41l-.45-2.5c-3.45,5.12-4.93,13.06-1.1,18.38,1.64,2.28,4.97,3.64,7.24,1.42,1.87-1.83,2.08-4.9,1.98-7.36-.16-4.11-1.54-7.9-3.83-11.29l.8,3.07c.91-1.4,2.05-2.7,3.58-3.45,2.08-1.02,4.51-.39,6.13,1.19s1.87,3.46,2.04,5.64c.11,1.38.07,2.76-.15,4.13-.2,1.19-.64,2.06-1.09,3.15-.84,2.02,2.24,7.13,4.54,5.04.76-.69,1.09-2.12,1.35-3.07.35-1.29.5-2.63.54-3.96.19-5.7-1.48-12.06-5.85-15.98-2.11-1.89-4.91-2.69-7.72-2.59-3.08.11-5.53,1.84-7.4,4.17l2.01.9c-3.33-5.2-10.51-6.82-15.62-3.32l1.79,1.12c-2.22-3.04-5.12-5.33-8.95-5.77-1.44-.17.23,4.33,1.79,4.51Z"/>
          <path class="cls-3" d="M54.05,6.32c-3.49,4.3-5.48,11.08-3.3,16.4.91,2.21,3.31,5.76,6.17,4.33,2.23-1.11,2.56-4.45,2.59-6.61.06-4.18-1.22-8.25-2.82-12.06-.33-.77-1.11-2.35-2.13-2.34s-.54,1.69-.34,2.17c1.07,2.54,1.97,5.12,2.2,7.91.16,1.9.15,4.47-1.19,6.01-.45.51-1.09.81-1.75.69-.08-.01-.39-.09-.32-.08.08,0-.14-.2-.04,0s-.01,0-.05-.06c.34.41.14.17.06.07.03.05.29.53.09.15s.27.48-.03-.06c.01.02-.09-.23-.09-.23.02,0,.16.59.09.29-.02-.1-.05-.19-.08-.29-.13-.49-.15-.65-.19-1.34-.06-1.09.07-2.19.29-3.27.56-2.81,1.82-5.49,3.63-7.71.92-1.13-1.73-5.28-2.8-3.96Z"/>
          <path class="cls-3" d="M68.37,9.11c-2.18,4.46-3.43,10.13-1.12,14.78.55,1.11,1.58,2.75,2.96,2.9.71.08,1.3-.34,1.73-.85,1.23-1.42,1.36-3.7,1.38-5.48.01-1.55-.2-3.09-.53-4.6-.41-1.88-1.25-3.56-2.08-5.28-.27-.57-1.32-2.13-2.15-1.68s-.01,2.2.24,2.72c.13.26.25.53.38.79.05.11.11.22.16.33-.02-.04-.14-.32-.02-.05s.22.51.33.77c0,0,.13.37.06.16s.09.36.11.42c.23.95.36,1.83.43,2.88.05.88.04,1.59-.11,2.51-.05.35-.12.71-.22,1.05-.05.2,0,.05-.1.29-.07.17-.13.33-.22.49-.12.23-.25.44-.41.64-.14.17.09-.05-.07.08-.1.08-.2.15-.31.21-.09.05-.19.09-.28.11-.13.04.08-.02.09-.02-.04.01-.2,0-.21,0,.12.11.34.16.47.3.12.12.2.26.3.4.12.2.13.21.03.02l.15.33c-.01-.12-.11-.28-.15-.39-.16-.4.13.54.04.12-.03-.17-.08-.35-.12-.52.1.42-.02-.22-.04-.34-.09-.89-.07-1.48.04-2.39.26-2.35.99-4.6,2.02-6.72.45-.93-.24-2.32-.8-3.07-.27-.36-1.55-1.84-2.01-.9Z"/>
        </g>
      </g>
    </g>
  </g>
</svg>