<?xml version="1.0" encoding="UTF-8"?>
<svg id="_レイヤー_2" data-name="レイヤー 2" xmlns="http://www.w3.org/2000/svg" width="74.3mm" height="34.84mm" viewBox="0 0 210.6 98.75">
  <defs>
    <style>
      .cls-1 {
        stroke-width: 6.8px;
      }

      .cls-1, .cls-2, .cls-3 {
        fill: none;
        stroke: #f4e227;
        stroke-miterlimit: 10;
      }

      .cls-2 {
        stroke-width: 7.26px;
      }

      .cls-3 {
        stroke-width: 7.13px;
      }

      .cls-4 {
        fill: #f4e227;
        stroke-width: 0px;
      }
    </style>
  </defs>
  <g id="_レイヤー_1-2" data-name="レイヤー 1">
    <g>
      <line class="cls-3" x1="138.31" y1="1.1" x2="138.31" y2="12.61"/>
      <line class="cls-3" x1="117.41" y1="12.61" x2="159.21" y2="12.61"/>
      <polyline class="cls-1" points="159.21 33.14 121.2 33.14 121.2 96.59"/>
      <line class="cls-3" x1="127.78" y1="12.61" x2="127.78" y2="33.14"/>
      <line class="cls-3" x1="148.7" y1="12.61" x2="148.7" y2="33.14"/>
      <line class="cls-3" x1="156.54" y1="47.14" x2="130.54" y2="57.3"/>
      <line class="cls-3" x1="156.54" y1="64.07" x2="130.54" y2="74.23"/>
      <line class="cls-3" x1="156.54" y1="81" x2="130.54" y2="91.16"/>
      <line class="cls-3" x1="167.79" y1="6.96" x2="209.37" y2="6.96"/>
      <line class="cls-3" x1="188.58" y1="6.96" x2="173.6" y2="27.78"/>
      <rect class="cls-3" x="173.6" y="26.81" width="33.44" height="49.76"/>
      <line class="cls-3" x1="173.6" y1="42.73" x2="207.04" y2="42.73"/>
      <line class="cls-3" x1="173.6" y1="59.5" x2="207.04" y2="59.5"/>
      <line class="cls-3" x1="181.09" y1="83.4" x2="173.6" y2="96.59"/>
      <line class="cls-3" x1="199.55" y1="83.4" x2="207.04" y2="97.03"/>
    </g>
    <g>
      <path class="cls-4" d="M73.9,26.77c-.14-1.43-.25-2.86-.32-4.29-.02-.51-.05-1.03-.2-1.55-.07-.27-.19-.52-.56-.74-.07-.04-.1-.05-.16-.08-.07-.09-.07-.2-.21-.29-.65-.41-1.94-.48-2.8-.17-.39.14-.54.24-.63.32-.18.09-.72.46-.77.51-.21.26-.29.57-.38.84-.38,1.28-.34,2.6-.42,3.89-.08,1.29-.15,2.59-.18,3.88-.03,1.17-.55,2.73,2.35,3.27,6.41,1.2,4.41-4.24,4.28-5.59"/>
      <path class="cls-4" d="M26.51,26.77c-.14-1.43-.25-2.86-.32-4.29-.02-.51-.05-1.03-.2-1.54-.08-.27-.19-.52-.56-.74-.07-.04-.11-.05-.16-.08-.07-.09-.07-.2-.21-.29-.65-.41-1.94-.48-2.8-.17-.39.14-.54.24-.63.32-.18.08-.72.46-.77.51-.21.25-.3.57-.38.84-.38,1.28-.34,2.6-.42,3.89-.08,1.29-.14,2.58-.18,3.88-.03,1.17-.55,2.73,2.35,3.27,6.42,1.2,4.41-4.24,4.28-5.59"/>
      <path class="cls-4" d="M76.97,35.2c-3.94,16.78-15.88,22.33-32.64,22.68-7.22.15-14.72-1.28-21.19-4.51-6.87-3.43-6.88-8.1-9.28-14.33-.2-.51-1.04-.66-1.39-.25-12.72,14.79,20.99,24.27,29.28,24.81,15.59,1,44.03-7.26,39.98-28.17-.45-2.34-4.2-2.66-4.77-.23"/>
      <line class="cls-2" x1="11.7" y1="1.31" x2="3.39" y2="22.87"/>
      <line class="cls-2" x1="7.54" y1="12.09" x2="42.59" y2="12.09"/>
      <line class="cls-2" x1="59.99" y1="1.31" x2="51.67" y2="22.87"/>
      <line class="cls-2" x1="55.83" y1="12.09" x2="90.88" y2="12.09"/>
      <line class="cls-2" x1="30.31" y1="34.59" x2="59.19" y2="34.59"/>
      <line class="cls-2" x1="45.25" y1="38.08" x2="45.25" y2="54.72"/>
      <g>
        <path class="cls-2" d="M44.79,66.19c0,14.91-11.65,27-26.03,27"/>
        <path class="cls-2" d="M45.01,66.19c0,14.91,11.65,27,26.02,27"/>
      </g>
    </g>
  </g>
</svg>