<?xml version="1.0" encoding="UTF-8"?>
<svg id="_レイヤー_2" data-name="レイヤー 2" xmlns="http://www.w3.org/2000/svg" width="47.27mm" height="41.56mm" viewBox="0 0 134 117.82">
  <defs>
    <style>
      .cls-1 {
        fill: #a8cd31;
        stroke-width: 0px;
      }

      .cls-2 {
        fill: #ee86a5;
        stroke-miterlimit: 10;
        stroke-width: 1.86px;
      }

      .cls-2, .cls-3 {
        stroke: #a8cd31;
      }

      .cls-3 {
        fill: none;
        stroke-linecap: round;
        stroke-linejoin: round;
        stroke-width: 2.48px;
      }
    </style>
  </defs>
  <g id="_レイヤー_1-2" data-name="レイヤー 1">
    <g>
      <path class="cls-1" d="M31.42,59.31c.26.54.23-.93.27-1.18.18-1.24.11-2.34-.67-3.36-.88-1.18-2.17-1.51-3.49-.89-1.08-.78-2.55-.91-3.7-.02,0-.06-.02-.11-.03-.17-.61-3.03-4.93-1.9-5,.88-.02,0-.04,0-.06,0-.02,1.24-.01,2.48,0,3.73-.28,1.43-.76,2.87-.95,4.19-.15,1.04.42,1.69,1.13,1.87,0,.07,0,.14,0,.2.15,3.57,5,3.72,5.99.55.22-.7.5-1.39.81-2.07.65.5,1.38.92,2.17,1.21,3.02,1.11,4.57-2.73,3.51-4.92"/>
      <path class="cls-1" d="M118.44,57.38c-.64-1.78-2.77-3.32-4.59-2.57-1.67-2.11-5.48-1.02-5.79,1.74-1.75-1.41-4.42.14-4.2,2.65.12,1.31.75,3.89,2.11,4.81.68,1.31,1.41,2.61,2.13,3.92,1.53,2.76,5.41,1.74,5.77-1.25.02-.15.03-.3.04-.45.36-.04.73-.12,1.08-.26,1.54,1.3,4.35.33,4.33-1.87-.01-2.31-.08-4.5-.89-6.71"/>
      <path class="cls-1" d="M89.57,56.33c-.05-1.16-.06-2.32-.05-3.48.01-.42.02-.84-.11-1.26-.06-.23-.16-.43-.53-.62-.06-.03-.1-.04-.15-.07-.07-.08-.06-.16-.2-.24-.63-.35-3.01-.81-3.91-.59-.4.1-.57.18-.66.24-.19.07-.77.35-.82.39-.23.2-.33.45-.45.66-.48,1.02-.52,2.09-.69,3.13-.17,1.04-.32,2.08-.44,3.13-.11.94-.75,2.19,2.19,2.73,6.48,1.19,5.85-2.92,5.81-4.02"/>
      <path class="cls-1" d="M54.72,54.94c-.04-1.16-.06-2.32-.04-3.48.01-.42.02-.84-.1-1.26-.06-.22-.17-.43-.53-.62-.07-.03-.1-.04-.15-.07-.07-.08-.06-.16-.2-.24-.64-.35-1.96-.46-2.85-.24-.41.1-.57.18-.66.24-.19.06-.77.35-.83.39-.23.2-.34.45-.45.66-.48,1.02-1.22,2.09-1.39,3.13-.17,1.04-.32,2.08-.44,3.13-.11.94-.04,2.19,2.9,2.73,6.49,1.19,4.8-3.28,4.75-4.37"/>
      <path class="cls-1" d="M96.95,74.6c-4.67,14.19-13.26,12.96-29.51,13.78-6.69.34-15.91-2.62-21.75-5.93-6.19-3.51-5.65-4.67-7.57-10.56-.16-.48-.5-1.54-1.61-1.35-.77.13-1.36.65-1.66,1.53-4.66,13.98,23.38,20.77,30.76,20.77,10.96,0,35.17.06,35.17-17.23,0-2.2-3.29-4.04-3.84-1.01"/>
      <path class="cls-3" d="M87.38,5.08c25.05,7.34,43.46,27.95,45.23,52.12,1.12,15.28-4.44,29.86-15.65,41.07-11.19,11.17-26.68,17.65-43.61,18.23-6.31.22-12.44-.06-18.19-.83C22.71,111.34,3.61,92.18,1.37,61.72c-1.11-15.09,5.23-29.72,17.87-41.2,5.63-5.12,11.11-8.74,18.39-11.55,5.8-2.24,9.12-3.02,11.02-3.17"/>
      <path class="cls-3" d="M93.15,7.18c22.64,9.23,37.42,30.81,36.19,54.49-.79,14.97-7.76,28.71-19.64,38.68-11.85,9.95-27.17,14.97-43.13,14.13-5.95-.31-11.67-1.09-16.97-2.31-29.94-6.91-45.57-27.15-44-56.99.77-14.78,8.49-28.5,21.73-38.62,5.9-4.52,11.48-7.58,18.65-9.72,2.94-.88,5.22-1.42,6.98-1.75,6.14-1.15,6.05.41,6.05.41"/>
      <path class="cls-2" d="M48.46.93c3.38.32,5.74,2.2,7.45,4.59,1.52-1.08,3.32-1.8,5.48-1.87,4.78-.15,7.62,2.89,8.35,4.07,1.55-2,3.85-3.8,6.89-3.9,1.66-.05,4.23.33,5.63,1.2,2.79,1.76,4.12,4.63,4.81,7.19,1.26,4.68.87,9.97-.84,12.75-.13.21-.46.33-.79.34-.56.01-1.05-.29-1.18-.75-.05-.17-.04-.32.02-.46,1.57-2.46,1.89-7.47.71-11.83-.85-3.16-3.97-7.14-8.07-7.02-3.27.1-5.47,3.47-5.96,4.22.76,1.11,1.73,2.75,2.21,4.54,1.5,5.59.74,11.79-3.4,11.91-.74.02-1.44-.17-2.03-.47-.9-.57-1.53-1.55-1.94-3.06-.96-3.59.16-9.26,2.86-13.17-.71-1.25-1.67-2.25-2.86-3.03-1.16-.71-2.64-1.13-4.16-1.08-1.84.06-3.45.81-4.75,2.02,1.04,1.78,1.86,4.16,2.41,6.2,1.79,6.64.54,13.03-4.2,13.17-2.35.07-4.59-1.38-5.42-4.44-1.15-4.29.54-11.61,4.82-15.36-1.63-2.61-3.63-4-6.07-4.28-.48-.06-.97-.32-1.08-.71-.12-.46.3-.79.85-.81h.23ZM55.45,8.3c-3.18,3.86-4.78,9.83-3.73,13.73.12.46.89,3.13,3.05,3.06,2.99-.09,4.1-5.62,2.47-11.67-.53-1.97-1.16-3.62-1.8-5.12ZM69.77,11.1c-1.92,3.89-2.71,8.38-1.93,11.26.13.49.69,2.21,1.61,2.18,1.93-.06,3.17-4.49,1.76-10.09-.31-1.16-.89-2.21-1.43-3.36Z"/>
    </g>
  </g>
</svg>