<svg width="512" height="512" viewBox="0 0 512 512" fill="none" xmlns="http://www.w3.org/2000/svg">
<rect x="12.5" y="12.5" width="487" height="487" fill="#FFF3E0" stroke="#AEEA00" stroke-width="25"/>
<path d="M143.68 416.336C137.232 418 131.72 418.104 127.144 416.648C122.568 415.192 119.344 411.864 117.472 406.664C115.808 401.88 116.016 397.304 118.096 392.936C120.384 388.568 124.336 385.656 129.952 384.2C154.912 378.168 175.088 370.056 190.48 359.864C206.08 349.464 217.52 336.152 224.8 319.928H127.768C122.776 319.928 118.824 318.368 115.912 315.248C113 312.128 111.544 308.28 111.544 303.704C111.544 299.336 113 295.592 115.912 292.472C118.824 289.144 122.776 287.48 127.768 287.48H233.848C234.68 281.24 235.304 274.48 235.72 267.2C224.696 268.032 213.672 268.76 202.648 269.384C191.624 269.8 180.912 270.112 170.512 270.32C164.896 270.32 160.424 268.968 157.096 266.264C153.768 263.352 151.896 259.296 151.48 254.096C151.272 249.52 152.832 245.568 156.16 242.24C159.696 238.912 164.168 237.248 169.576 237.248C180.392 237.248 192.352 236.936 205.456 236.312C218.768 235.48 232.288 234.44 246.016 233.192C259.952 231.736 273.264 230.072 285.952 228.2C298.848 226.328 310.08 224.352 319.648 222.272H320.896C320.48 221.44 320.064 220.712 319.648 220.088C319.232 219.256 318.816 218.424 318.4 217.592C317.36 214.68 315.904 210.832 314.032 206.048C312.368 201.056 310.808 196.688 309.352 192.944H290.32C287.408 197.728 284.496 202.408 281.584 206.984C278.672 211.56 276.072 215.616 273.784 219.152C270.872 223.312 266.816 225.912 261.616 226.952C256.624 227.784 252.048 226.848 247.888 224.144C244.144 221.856 241.856 218.424 241.024 213.848C240.192 209.272 241.128 205.216 243.832 201.68C247.784 196.688 252.048 190.24 256.624 182.336C261.408 174.432 265.984 166.424 270.352 158.312C274.72 149.992 278.152 143.024 280.648 137.408C282.936 132.624 286.264 129.504 290.632 128.048C295.208 126.384 299.784 126.488 304.36 128.36C308.936 130.44 312.056 133.664 313.72 138.032C315.592 142.4 315.592 146.456 313.72 150.2C312.888 151.864 311.952 153.736 310.912 155.816C309.872 157.896 308.728 160.08 307.48 162.368H382.984C387.144 162.368 390.68 163.928 393.592 167.048C396.712 169.96 398.272 173.496 398.272 177.656C398.272 181.816 396.712 185.456 393.592 188.576C390.68 191.488 387.144 192.944 382.984 192.944H346.792C347.832 195.024 348.768 197 349.6 198.872C350.432 200.744 351.16 202.512 351.784 204.176C353.864 209.168 353.864 213.848 351.784 218.216C349.912 222.584 346.584 225.496 341.8 226.952L341.488 227.264C342.736 228.72 343.672 230.696 344.296 233.192C345.752 238.184 345.128 242.76 342.424 246.92C339.928 250.872 336.08 253.368 330.88 254.408C321.936 256.28 312.368 258.048 302.176 259.712C292.192 261.168 281.896 262.52 271.288 263.768C271.08 267.72 270.768 271.776 270.352 275.936C269.936 279.888 269.52 283.736 269.104 287.48H383.296C388.496 287.48 392.448 289.144 395.152 292.472C398.064 295.592 399.52 299.336 399.52 303.704C399.52 308.28 398.064 312.128 395.152 315.248C392.448 318.368 388.496 319.928 383.296 319.928H286.264C298.12 335.944 312.368 349.048 329.008 359.24C345.856 369.432 364.16 377.024 383.92 382.016C389.328 383.472 393.176 386.696 395.464 391.688C397.96 396.472 398.168 401.36 396.088 406.352C394.008 411.968 390.264 415.504 384.856 416.96C379.448 418.416 373.728 418.208 367.696 416.336C344.608 408.848 323.184 398.24 303.424 384.512C283.872 370.576 268.272 353.416 256.624 333.032C247.264 353.832 233.328 370.992 214.816 384.512C196.304 397.824 172.592 408.432 143.68 416.336ZM210.448 230.072C205.664 231.528 201.088 231.424 196.72 229.76C192.56 227.888 189.648 224.664 187.984 220.088C187.152 216.968 185.696 212.6 183.616 206.984C181.744 201.368 180.08 196.688 178.624 192.944H168.016C164.688 197.936 161.464 202.72 158.344 207.296C155.224 211.664 152.208 215.72 149.296 219.464C145.968 223.416 141.808 225.912 136.816 226.952C132.032 227.992 127.56 227.16 123.4 224.456C119.448 221.544 117.056 217.8 116.224 213.224C115.392 208.648 116.432 204.592 119.344 201.056C124.128 195.232 129.12 188.368 134.32 180.464C139.52 172.352 144.304 164.448 148.672 156.752C153.248 148.848 156.68 142.4 158.968 137.408C161.256 132.624 164.584 129.504 168.952 128.048C173.528 126.384 178.104 126.488 182.68 128.36C187.464 130.44 190.584 133.664 192.04 138.032C193.704 142.4 193.496 146.768 191.416 151.136C189.96 154.464 188.088 158.208 185.8 162.368H240.4C244.56 162.368 248.096 163.928 251.008 167.048C254.128 169.96 255.688 173.496 255.688 177.656C255.688 181.816 254.128 185.456 251.008 188.576C248.096 191.488 244.56 192.944 240.4 192.944H214.504C215.752 195.648 216.896 198.352 217.936 201.056C219.184 203.76 220.224 206.152 221.056 208.232C222.928 213.016 222.72 217.488 220.432 221.648C218.352 225.808 215.024 228.616 210.448 230.072Z" fill="#FFEA00"/>
</svg>
